StickNoBills-sinhala-1.ufo
<glyph name="numbersign" format="1">
  <advance width="753"/>
  <unicode hex="0023"/>
  <outline>
    <contour>
      <point x="28" y="176" type="line"/>
      <point x="53" y="297" type="line"/>
      <point x="190" y="297" type="line"/>
      <point x="208" y="404" type="line"/>
      <point x="62" y="404" type="line"/>
      <point x="84" y="525" type="line"/>
      <point x="230" y="525" type="line"/>
      <point x="257" y="682" type="line"/>
      <point x="378" y="682" type="line"/>
      <point x="350" y="524" type="line"/>
      <point x="456" y="524" type="line"/>
      <point x="483" y="682" type="line"/>
      <point x="604" y="682" type="line"/>
      <point x="576" y="524" type="line"/>
      <point x="714" y="524" type="line"/>
      <point x="695" y="403" type="line"/>
      <point x="555" y="404" type="line"/>
      <point x="536" y="296" type="line"/>
      <point x="679" y="296" type="line"/>
      <point x="661" y="175" type="line"/>
      <point x="515" y="176" type="line"/>
      <point x="488" y="22" type="line"/>
      <point x="368" y="22" type="line"/>
      <point x="394" y="176" type="line"/>
      <point x="289" y="176" type="line"/>
      <point x="262" y="22" type="line"/>
      <point x="141" y="22" type="line"/>
      <point x="168" y="176" type="line"/>
    </contour>
    <contour>
      <point x="310" y="297" type="line"/>
      <point x="416" y="296" type="line"/>
      <point x="434" y="404" type="line"/>
      <point x="329" y="404" type="line"/>
    </contour>
  </outline>
</glyph>
<glyph name="one" format="1">
  <advance width="277"/>
  <unicode hex="0031"/>
  <outline>
    <contour>
      <point x="30" y="514" type="line"/>
      <point x="30" y="640" type="line"/>
      <point x="106" y="700" type="line"/>
      <point x="247" y="700" type="line"/>
      <point x="247" y="0" type="line"/>
      <point x="106" y="0" type="line"/>
      <point x="106" y="514" type="line"/>
    </contour>
  </outline>
</glyph>
<glyph name="six" format="1">
  <advance width="505"/>
  <unicode hex="0036"/>
  <outline>
    <contour>
      <point x="232" y="-1" type="line"/>
      <point x="57" y="-1"/>
      <point x="30" y="186"/>
      <point x="30" y="358" type="curve" smooth="yes"/>
      <point x="30" y="475"/>
      <point x="48" y="700"/>
      <point x="232" y="700" type="curve"/>
      <point x="232" y="570" type="line"/>
      <point x="166" y="558"/>
      <point x="165" y="462"/>
      <point x="165" y="412" type="curve"/>
      <point x="182" y="420"/>
      <point x="212" y="425"/>
      <point x="232" y="425" type="curve"/>
      <point x="232" y="379"/>
      <point x="232" y="295"/>
      <point x="232" y="295" type="curve"/>
      <point x="194" y="285"/>
      <point x="175" y="248"/>
      <point x="175" y="212" type="curve" smooth="yes"/>
      <point x="175" y="175"/>
      <point x="194" y="139"/>
      <point x="232" y="129" type="curve"/>
    </contour>
    <contour>
      <point x="286" y="-1" type="curve"/>
      <point x="286" y="129" type="line"/>
      <point x="324" y="139"/>
      <point x="343" y="175"/>
      <point x="343" y="212" type="curve" smooth="yes"/>
      <point x="343" y="248"/>
      <point x="324" y="285"/>
      <point x="286" y="295" type="curve"/>
      <point x="286" y="425" type="line"/>
      <point x="410" y="425"/>
      <point x="475" y="329"/>
      <point x="475" y="211" type="curve" smooth="yes"/>
      <point x="475" y="86"/>
      <point x="387" y="-1"/>
    </contour>
    <contour>
      <point x="345" y="522" type="line"/>
      <point x="335" y="559"/>
      <point x="300" y="570"/>
      <point x="286" y="570" type="curve"/>
      <point x="286" y="700" type="line"/>
      <point x="357" y="700"/>
      <point x="421" y="654"/>
      <point x="451" y="594" type="curve"/>
    </contour>
  </outline>
</glyph>
<glyph name="B" format="1">
  <advance width="488"/>
  <unicode hex="0042"/>
  <outline>
    <contour>
      <point x="30" y="0" type="line"/>
      <point x="30" y="700" type="line"/>
      <point x="170" y="700" type="line"/>
      <point x="170" y="0" type="line"/>
    </contour>
    <contour>
      <point x="225" y="0" type="line"/>
      <point x="225" y="123" type="line"/>
      <point x="230" y="123" type="line" smooth="yes"/>
      <point x="288" y="123"/>
      <point x="317" y="165"/>
      <point x="317" y="206" type="curve" smooth="yes"/>
      <point x="317" y="248"/>
      <point x="288" y="289"/>
      <point x="233" y="289" type="curve" smooth="yes"/>
      <point x="225" y="289" type="line"/>
      <point x="225" y="411" type="line"/>
      <point x="233" y="411" type="line" smooth="yes"/>
      <point x="288" y="411"/>
      <point x="317" y="452"/>
      <point x="317" y="494" type="curve" smooth="yes"/>
      <point x="317" y="535"/>
      <point x="288" y="577"/>
      <point x="230" y="577" type="curve" smooth="yes"/>
      <point x="225" y="577" type="line"/>
      <point x="225" y="700" type="line"/>
      <point x="249" y="700" type="line" smooth="yes"/>
      <point x="395" y="700"/>
      <point x="457" y="600"/>
      <point x="457" y="504" type="curve" smooth="yes"/>
      <point x="457" y="444"/>
      <point x="433" y="383"/>
      <point x="389" y="350" type="curve"/>
      <point x="433" y="317"/>
      <point x="457" y="256"/>
      <point x="457" y="196" type="curve" smooth="yes"/>
      <point x="457" y="100"/>
      <point x="395" y="0"/>
      <point x="249" y="0" type="curve" smooth="yes"/>
    </contour>
  </outline>
</glyph>
<glyph name="F" format="1">
  <advance width="432"/>
  <unicode hex="0046"/>
  <outline>
    <contour>
      <point x="42" y="1" type="line"/>
      <point x="42" y="700" type="line"/>
      <point x="406" y="700" type="line"/>
      <point x="406" y="560" type="line"/>
      <point x="183" y="560" type="line"/>
      <point x="183" y="418" type="line"/>
      <point x="312" y="418" type="line"/>
      <point x="312" y="277" type="line"/>
      <point x="183" y="277" type="line"/>
      <point x="183" y="1" type="line"/>
    </contour>
  </outline>
</glyph>
<glyph name="N" format="1">
  <advance width="529"/>
  <unicode hex="004E"/>
  <outline>
    <contour>
      <point x="42" y="0" type="line"/>
      <point x="42" y="492" type="line"/>
      <point x="50" y="492" type="line"/>
      <point x="183" y="278" type="line"/>
      <point x="183" y="0" type="line"/>
    </contour>
    <contour>
      <point x="42" y="608" type="line"/>
      <point x="42" y="700" type="line"/>
      <point x="157" y="700" type="line"/>
      <point x="487" y="168" type="line"/>
      <point x="487" y="0" type="line"/>
      <point x="420" y="0" type="line"/>
    </contour>
    <contour>
      <point x="346" y="498" type="line"/>
      <point x="346" y="700" type="line"/>
      <point x="487" y="700" type="line"/>
      <point x="487" y="284" type="line"/>
      <point x="479" y="284" type="line"/>
    </contour>
  </outline>
</glyph>
<glyph name="f" format="1">
  <advance width="321"/>
  <unicode hex="0066"/>
  <outline>
    <contour>
      <point x="15" y="389" type="line"/>
      <point x="15" y="519" type="line"/>
      <point x="85" y="519" type="line"/>
      <point x="85" y="558" type="line" smooth="yes"/>
      <point x="85" y="608"/>
      <point x="141" y="715"/>
      <point x="254" y="717" type="curve" smooth="yes"/>
      <point x="321" y="717" type="line"/>
      <point x="291" y="588" type="line"/>
      <point x="255" y="588" type="line"/>
      <point x="224" y="587"/>
      <point x="219" y="561"/>
      <point x="219" y="558" type="curve" smooth="yes"/>
      <point x="219" y="519" type="line"/>
      <point x="291" y="519" type="line"/>
      <point x="291" y="389" type="line"/>
      <point x="219" y="389" type="line"/>
      <point x="219" y="0" type="line"/>
      <point x="85" y="0" type="line"/>
      <point x="85" y="389" type="line"/>
    </contour>
  </outline>
</glyph>
<glyph name="g" format="1">
  <advance width="456"/>
  <unicode hex="0067"/>
  <outline>
    <contour>
      <point x="20" y="-190" type="line"/>
      <point x="51" y="-67" type="line"/>
      <point x="249" y="-67" type="line"/>
      <point x="283" y="-66"/>
      <point x="291" y="-38"/>
      <point x="291" y="-35" type="curve" smooth="yes"/>
      <point x="291" y="12" type="line"/>
      <point x="276" y="9"/>
      <point x="262" y="8"/>
      <point x="246" y="8" type="curve"/>
      <point x="246" y="132" type="line"/>
      <point x="281" y="132"/>
      <point x="291" y="150"/>
      <point x="291" y="165" type="curve" smooth="yes"/>
      <point x="291" y="420" type="line" smooth="yes"/>
      <point x="291" y="426"/>
      <point x="281" y="452"/>
      <point x="246" y="452" type="curve"/>
      <point x="246" y="577" type="line"/>
      <point x="261" y="577"/>
      <point x="277" y="575"/>
      <point x="291" y="571" type="curve"/>
      <point x="291" y="577" type="line"/>
      <point x="419" y="577" type="line"/>
      <point x="419" y="-35" type="line" smooth="yes"/>
      <point x="419" y="-82"/>
      <point x="364" y="-189"/>
      <point x="251" y="-190" type="curve"/>
    </contour>
    <contour>
      <point x="30" y="162" type="curve" smooth="yes"/>
      <point x="30" y="425" type="line"/>
      <point x="31" y="475"/>
      <point x="86" y="577"/>
      <point x="203" y="577" type="curve"/>
      <point x="203" y="452" type="line"/>
      <point x="166" y="452"/>
      <point x="156" y="427"/>
      <point x="156" y="422" type="curve" smooth="yes"/>
      <point x="156" y="163" type="line" smooth="yes"/>
      <point x="156" y="150"/>
      <point x="167" y="132"/>
      <point x="203" y="132" type="curve"/>
      <point x="203" y="8" type="line"/>
      <point x="85" y="8"/>
      <point x="30" y="113"/>
    </contour>
  </outline>
</glyph>
<glyph name="o" format="1">
  <advance width="476"/>
  <unicode hex="006F"/>
  <outline>
    <contour>
      <point x="38" y="155" type="curve" smooth="yes"/>
      <point x="38" y="416" type="line" smooth="yes"/>
      <point x="38" y="470"/>
      <point x="96" y="570"/>
      <point x="218" y="570" type="curve"/>
      <point x="218" y="440" type="line"/>
      <point x="179" y="440"/>
      <point x="170" y="417"/>
      <point x="170" y="402" type="curve" smooth="yes"/>
      <point x="170" y="169" type="line" smooth="yes"/>
      <point x="170" y="145"/>
      <point x="182" y="129"/>
      <point x="218" y="129" type="curve"/>
      <point x="218" y="-1" type="line"/>
      <point x="96" y="-1"/>
      <point x="38" y="103"/>
    </contour>
    <contour>
      <point x="264" y="-1" type="curve"/>
      <point x="264" y="129" type="line"/>
      <point x="301" y="129"/>
      <point x="310" y="152"/>
      <point x="310" y="167" type="curve" smooth="yes"/>
      <point x="309" y="402" type="line" smooth="yes"/>
      <point x="309" y="424"/>
      <point x="300" y="440"/>
      <point x="263" y="440" type="curve"/>
      <point x="263" y="570" type="line"/>
      <point x="380" y="570"/>
      <point x="438" y="470"/>
      <point x="438" y="416" type="curve" smooth="yes"/>
      <point x="438" y="155" type="line" smooth="yes"/>
      <point x="438" y="101"/>
      <point x="382" y="-1"/>
    </contour>
  </outline>
</glyph>
<glyph name="r" format="1">
  <advance width="361"/>
  <unicode hex="0072"/>
  <outline>
    <contour>
      <point x="42" y="0" type="line"/>
      <point x="42" y="570" type="line"/>
      <point x="178" y="570" type="line"/>
      <point x="178" y="507" type="line"/>
      <point x="201" y="537"/>
      <point x="254" y="575"/>
      <point x="315" y="575" type="curve" smooth="yes"/>
      <point x="351" y="575" type="line"/>
      <point x="320" y="441" type="line"/>
      <point x="247" y="440"/>
      <point x="178" y="371"/>
      <point x="178" y="305" type="curve" smooth="yes"/>
      <point x="178" y="0" type="line"/>
    </contour>
  </outline>
</glyph>
<glyph name="yen" format="1">
  <advance width="449"/>
  <unicode hex="00A5"/>
  <outline>
    <contour>
      <point x="16" y="299" type="line"/>
      <point x="441" y="299" type="line"/>
      <point x="441" y="239" type="line"/>
      <point x="16" y="239" type="line"/>
    </contour>
    <contour>
      <point x="16" y="409" type="line"/>
      <point x="441" y="409" type="line"/>
      <point x="441" y="349" type="line"/>
      <point x="16" y="349" type="line"/>
    </contour>
    <contour>
      <point x="165" y="0" type="line"/>
      <point x="165" y="238" type="line"/>
      <point x="35" y="698" type="line"/>
      <point x="172" y="698" type="line"/>
      <point x="235" y="485" type="line"/>
      <point x="295" y="698" type="line"/>
      <point x="432" y="698" type="line"/>
      <point x="302" y="236" type="line"/>
      <point x="302" y="0" type="line"/>
    </contour>
  </outline>
</glyph>
<glyph name="brokenbar" format="1">
  <advance width="214"/>
  <unicode hex="00A6"/>
  <outline>
    <contour>
      <point x="42" y="-140" type="line"/>
      <point x="42" y="217" type="line"/>
      <point x="164" y="217" type="line"/>
      <point x="164" y="-140" type="line"/>
    </contour>
    <contour>
      <point x="42" y="407" type="line"/>
      <point x="42" y="764" type="line"/>
      <point x="164" y="764" type="line"/>
      <point x="164" y="407" type="line"/>
    </contour>
  </outline>
</glyph>
<glyph name="section" format="1">
  <advance width="603"/>
  <unicode hex="00A7"/>
  <outline>
    <contour>
      <point x="54" y="351" type="curve" smooth="yes"/>
      <point x="54" y="413"/>
      <point x="82" y="465"/>
      <point x="126" y="499" type="curve"/>
      <point x="119" y="519"/>
      <point x="116" y="543"/>
      <point x="116" y="571" type="curve" smooth="yes"/>
      <point x="116" y="710"/>
      <point x="225" y="759"/>
      <point x="293" y="759" type="curve" smooth="yes"/>
      <point x="405" y="759" type="line"/>
      <point x="405" y="627" type="line"/>
      <point x="301" y="627" type="line" smooth="yes"/>
      <point x="268" y="627"/>
      <point x="247" y="606"/>
      <point x="247" y="576" type="curve" smooth="yes"/>
      <point x="247" y="555"/>
      <point x="258" y="540"/>
      <point x="274" y="527" type="curve"/>
      <point x="274" y="372" type="line"/>
      <point x="261" y="377"/>
      <point x="249" y="381"/>
      <point x="239" y="386" type="curve" smooth="yes"/>
      <point x="230" y="391"/>
      <point x="221" y="395"/>
      <point x="212" y="400" type="curve"/>
      <point x="202" y="392"/>
      <point x="195" y="380"/>
      <point x="195" y="357" type="curve" smooth="yes"/>
      <point x="195" y="314"/>
      <point x="232" y="290"/>
      <point x="274" y="272" type="curve"/>
      <point x="274" y="125" type="line"/>
      <point x="243" y="138"/>
      <point x="209" y="150"/>
      <point x="182" y="166" type="curve" smooth="yes"/>
      <point x="121" y="202"/>
      <point x="54" y="249"/>
    </contour>
    <contour>
      <point x="198" y="-4" type="line"/>
      <point x="302" y="-4" type="line" smooth="yes"/>
      <point x="335" y="-4"/>
      <point x="356" y="17"/>
      <point x="356" y="47" type="curve" smooth="yes"/>
      <point x="356" y="68"/>
      <point x="345" y="84"/>
      <point x="328" y="97" type="curve"/>
      <point x="328" y="252" type="line"/>
      <point x="341" y="247"/>
      <point x="353" y="242"/>
      <point x="364" y="237" type="curve" smooth="yes"/>
      <point x="373" y="232"/>
      <point x="382" y="228"/>
      <point x="391" y="223" type="curve"/>
      <point x="401" y="231"/>
      <point x="408" y="243"/>
      <point x="408" y="266" type="curve" smooth="yes"/>
      <point x="408" y="310"/>
      <point x="371" y="333"/>
      <point x="328" y="351" type="curve"/>
      <point x="328" y="498" type="line"/>
      <point x="359" y="485"/>
      <point x="393" y="473"/>
      <point x="421" y="457" type="curve" smooth="yes"/>
      <point x="482" y="421"/>
      <point x="549" y="374"/>
      <point x="549" y="272" type="curve" smooth="yes"/>
      <point x="549" y="210"/>
      <point x="521" y="158"/>
      <point x="477" y="124" type="curve"/>
      <point x="484" y="104"/>
      <point x="487" y="80"/>
      <point x="487" y="52" type="curve" smooth="yes"/>
      <point x="487" y="-87"/>
      <point x="378" y="-136"/>
      <point x="310" y="-136" type="curve" smooth="yes"/>
      <point x="198" y="-136" type="line"/>
    </contour>
  </outline>
</glyph>
<glyph name="uni00B5" format="1">
  <advance width="503"/>
  <unicode hex="00B5"/>
  <outline>
    <contour>
      <point x="48" y="0" type="line"/>
      <point x="48" y="698" type="line"/>
      <point x="172" y="698" type="line"/>
      <point x="172" y="326" type="line" smooth="yes"/>
      <point x="172" y="313"/>
      <point x="181" y="300"/>
      <point x="214" y="300" type="curve"/>
      <point x="214" y="179" type="line"/>
      <point x="199" y="179"/>
      <point x="186" y="180"/>
      <point x="172" y="183" type="curve"/>
      <point x="172" y="0" type="line"/>
    </contour>
    <contour>
      <point x="256" y="179" type="curve"/>
      <point x="256" y="300" type="line"/>
      <point x="289" y="300"/>
      <point x="298" y="313"/>
      <point x="298" y="326" type="curve" smooth="yes"/>
      <point x="298" y="698" type="line"/>
      <point x="298" y="700" type="line"/>
      <point x="422" y="700" type="line"/>
      <point x="422" y="698" type="line"/>
      <point x="422" y="328" type="line" smooth="yes"/>
      <point x="422" y="319"/>
      <point x="428" y="302"/>
      <point x="464" y="302" type="curve"/>
      <point x="464" y="181" type="line"/>
      <point x="421" y="181"/>
      <point x="388" y="193"/>
      <point x="361" y="213" type="curve"/>
      <point x="333" y="192"/>
      <point x="300" y="179"/>
    </contour>
  </outline>
</glyph>
<glyph name="paragraph" format="1">
  <advance width="481"/>
  <unicode hex="00B6"/>
  <outline>
    <contour>
      <point x="35" y="517" type="curve" smooth="yes"/>
      <point x="35" y="617"/>
      <point x="102" y="705"/>
      <point x="204" y="705" type="curve" smooth="yes"/>
      <point x="232" y="705"/>
      <point x="259" y="705"/>
      <point x="287" y="705" type="curve"/>
      <point x="287" y="-5" type="line"/>
      <point x="204" y="-5" type="line"/>
      <point x="204" y="329" type="line"/>
      <point x="100" y="329"/>
      <point x="35" y="403"/>
    </contour>
    <contour>
      <point x="344" y="-5" type="line"/>
      <point x="344" y="705" type="line"/>
      <point x="427" y="705" type="line"/>
      <point x="427" y="-5" type="line"/>
    </contour>
  </outline>
</glyph>
<glyph name="cedilla" format="1">
  <advance width="426"/>
  <unicode hex="00B8"/>
  <outline>
    <contour>
      <point x="123" y="-36" type="curve"/>
      <point x="123" y="55" type="line"/>
      <point x="159" y="55"/>
      <point x="199" y="68"/>
      <point x="199" y="123" type="curve"/>
      <point x="291" y="123" type="line"/>
      <point x="291" y="47"/>
      <point x="250" y="-36"/>
    </contour>
  </outline>
</glyph>
<glyph name="onehalf" format="1">
  <advance width="582"/>
  <unicode hex="00BD"/>
  <outline>
    <contour>
      <point x="306" y="0" type="line"/>
      <point x="306" y="75" type="line"/>
      <point x="542" y="75" type="line"/>
      <point x="542" y="0" type="line"/>
    </contour>
    <contour>
      <point x="0" y="0" type="line"/>
      <point x="432" y="700" type="line"/>
      <point x="508" y="700" type="line"/>
      <point x="83" y="0" type="line"/>
    </contour>
    <contour>
      <point x="49" y="607" type="line"/>
      <point x="49" y="670" type="line"/>
      <point x="87" y="700" type="line"/>
      <point x="168" y="700" type="line"/>
      <point x="168" y="350" type="line"/>
      <point x="87" y="350" type="line"/>
      <point x="87" y="607" type="line"/>
    </contour>
    <contour>
      <point x="306" y="248" type="line"/>
      <point x="306" y="309"/>
      <point x="362" y="350"/>
      <point x="411" y="350" type="curve"/>
      <point x="411" y="273" type="line"/>
      <point x="400" y="272"/>
      <point x="377" y="264"/>
      <point x="377" y="235" type="curve"/>
    </contour>
    <contour>
      <point x="306" y="101" type="line"/>
      <point x="306" y="142"/>
      <point x="348" y="163"/>
      <point x="389" y="181" type="curve" smooth="yes"/>
      <point x="431" y="199"/>
      <point x="472" y="213"/>
      <point x="472" y="238" type="curve" smooth="yes"/>
      <point x="472" y="265"/>
      <point x="454" y="272"/>
      <point x="439" y="273" type="curve"/>
      <point x="439" y="350" type="line"/>
      <point x="508" y="350"/>
      <point x="552" y="307"/>
      <point x="552" y="238" type="curve" smooth="yes"/>
      <point x="552" y="189"/>
      <point x="515" y="163"/>
      <point x="478" y="145" type="curve" smooth="yes"/>
      <point x="440" y="127"/>
      <point x="403" y="117"/>
      <point x="403" y="101" type="curve"/>
    </contour>
  </outline>
</glyph>
<glyph name="uni02C9" format="1">
  <advance width="416"/>
  <unicode hex="02C9"/>
  <outline>
    <contour>
      <point x="50" y="514" type="line"/>
      <point x="50" y="596" type="line"/>
      <point x="366" y="596" type="line"/>
      <point x="366" y="514" type="line"/>
    </contour>
  </outline>
</glyph>
<glyph name="tml_Visarga" format="1">
  <advance width="825"/>
  <unicode hex="0B83"/>
  <outline>
    <contour>
      <point x="166" y="238" type="curve" smooth="yes"/>
      <point x="233" y="238"/>
      <point x="287" y="184"/>
      <point x="287" y="117" type="curve" smooth="yes"/>
      <point x="287" y="50"/>
      <point x="233" y="-4"/>
      <point x="166" y="-4" type="curve" smooth="yes"/>
      <point x="99" y="-4"/>
      <point x="45" y="50"/>
      <point x="45" y="117" type="curve" smooth="yes"/>
      <point x="45" y="184"/>
      <point x="99" y="238"/>
    </contour>
    <contour>
      <point x="408" y="610" type="curve" smooth="yes"/>
      <point x="475" y="610"/>
      <point x="528" y="556"/>
      <point x="528" y="489" type="curve" smooth="yes"/>
      <point x="528" y="422"/>
      <point x="475" y="368"/>
      <point x="408" y="368" type="curve" smooth="yes"/>
      <point x="341" y="368"/>
      <point x="287" y="422"/>
      <point x="287" y="489" type="curve" smooth="yes"/>
      <point x="287" y="556"/>
      <point x="341" y="610"/>
    </contour>
    <contour>
      <point x="652" y="242" type="curve" smooth="yes"/>
      <point x="719" y="242"/>
      <point x="773" y="188"/>
      <point x="773" y="121" type="curve" smooth="yes"/>
      <point x="773" y="54"/>
      <point x="719" y="0"/>
      <point x="652" y="0" type="curve" smooth="yes"/>
      <point x="585" y="0"/>
      <point x="531" y="54"/>
      <point x="531" y="121" type="curve" smooth="yes"/>
      <point x="531" y="188"/>
      <point x="585" y="242"/>
    </contour>
  </outline>
</glyph>
<glyph name="tml_MatraUu" format="1">
  <advance width="768"/>
  <unicode hex="0BC2"/>
  <outline>
    <contour>
      <point x="57" y="574" type="line"/>
      <point x="337" y="574" type="line" smooth="yes"/>
      <point x="393" y="574"/>
      <point x="426" y="567"/>
      <point x="426" y="529" type="curve" smooth="yes"/>
      <point x="426" y="511"/>
      <point x="415" y="497"/>
      <point x="392" y="497" type="curve" smooth="yes"/>
      <point x="370" y="497"/>
      <point x="358" y="510"/>
      <point x="358" y="530" type="curve" smooth="yes"/>
      <point x="236" y="530" type="line"/>
      <point x="236" y="445"/>
      <point x="307" y="375"/>
      <point x="376" y="375" type="curve" smooth="yes"/>
      <point x="405" y="375" type="line" smooth="yes"/>
      <point x="460" y="375"/>
      <point x="548" y="426"/>
      <point x="548" y="530" type="curve" smooth="yes"/>
      <point x="548" y="540" type="line" smooth="yes"/>
      <point x="548" y="673"/>
      <point x="452" y="696"/>
      <point x="341" y="696" type="curve" smooth="yes"/>
      <point x="57" y="696" type="line"/>
    </contour>
    <contour>
      <point x="236" y="692" type="curve" smooth="yes"/>
      <point x="358" y="692" type="line"/>
      <point x="358" y="758"/>
      <point x="427" y="771"/>
      <point x="465" y="771" type="curve" smooth="yes"/>
      <point x="504" y="771"/>
      <point x="575" y="756"/>
      <point x="575" y="696" type="curve" smooth="yes"/>
      <point x="575" y="372" type="line" smooth="yes"/>
      <point x="575" y="337"/>
      <point x="557" y="314"/>
      <point x="519" y="314" type="curve" smooth="yes"/>
      <point x="460" y="314" type="line" smooth="yes"/>
      <point x="460" y="222" type="line" smooth="yes"/>
      <point x="519" y="222" type="line" smooth="yes"/>
      <point x="624" y="222"/>
      <point x="698" y="267"/>
      <point x="698" y="372" type="curve" smooth="yes"/>
      <point x="698" y="696" type="line" smooth="yes"/>
      <point x="698" y="801"/>
      <point x="611" y="893"/>
      <point x="465" y="893" type="curve" smooth="yes"/>
      <point x="333" y="893"/>
      <point x="236" y="802"/>
    </contour>
  </outline>
</glyph>
<glyph name="si_vocalicL" format="1">
  <advance width="978"/>
  <unicode hex="0D8F"/>
  <outline>
    <contour>
      <point x="45" y="88" type="curve" smooth="yes"/>
      <point x="45" y="140"/>
      <point x="87" y="182"/>
      <point x="139" y="182" type="curve" smooth="yes"/>
      <point x="191" y="182"/>
      <point x="233" y="140"/>
      <point x="233" y="88" type="curve" smooth="yes"/>
      <point x="233" y="36"/>
      <point x="191" y="-6"/>
      <point x="139" y="-6" type="curve" smooth="yes"/>
      <point x="87" y="-6"/>
      <point x="45" y="36"/>
    </contour>
    <contour>
      <point x="745" y="88" type="curve" smooth="yes"/>
      <point x="745" y="140"/>
      <point x="787" y="182"/>
      <point x="839" y="182" type="curve" smooth="yes"/>
      <point x="891" y="182"/>
      <point x="933" y="140"/>
      <point x="933" y="88" type="curve" smooth="yes"/>
      <point x="933" y="36"/>
      <point x="891" y="-6"/>
      <point x="839" y="-6" type="curve" smooth="yes"/>
      <point x="787" y="-6"/>
      <point x="745" y="36"/>
    </contour>
    <contour>
      <point x="30" y="201.842" type="curve"/>
      <point x="161" y="202" type="line"/>
      <point x="161" y="155.109"/>
      <point x="167.795" y="121.667"/>
      <point x="178.354" y="86.2139" type="curve"/>
      <point x="52.9932" y="49.9053" type="line"/>
      <point x="34.3633" y="93.7725"/>
      <point x="30" y="138.929"/>
    </contour>
    <contour>
      <point x="817" y="202" type="curve"/>
      <point x="948" y="201.842" type="line"/>
      <point x="948" y="138.929"/>
      <point x="943.637" y="93.7725"/>
      <point x="925.007" y="49.9053" type="curve"/>
      <point x="799.646" y="86.2139" type="line"/>
      <point x="810.205" y="121.667"/>
      <point x="817" y="155.109"/>
    </contour>
    <contour>
      <point x="321" y="556" type="curve"/>
      <point x="321" y="422" type="line"/>
      <point x="298" y="430" type="line" smooth="yes"/>
      <point x="286.669" y="433.683"/>
      <point x="270.764" y="437.365"/>
      <point x="253.785" y="437.365" type="curve" smooth="yes"/>
      <point x="210.828" y="437.365"/>
      <point x="161" y="413.791"/>
      <point x="161" y="307" type="curve" smooth="yes"/>
      <point x="161" y="251" type="line"/>
      <point x="30" y="251" type="line"/>
      <point x="30" y="332" type="line" smooth="yes"/>
      <point x="30" y="467.37"/>
      <point x="120.194" y="571.777"/>
      <point x="239.287" y="571.777" type="curve" smooth="yes"/>
      <point x="265.354" y="571.777"/>
      <point x="292.806" y="566.775"/>
    </contour>
    <contour>
      <point x="657" y="556" type="line"/>
      <point x="685.194" y="566.775"/>
      <point x="712.646" y="571.777"/>
      <point x="738.713" y="571.777" type="curve" smooth="yes"/>
      <point x="857.806" y="571.777"/>
      <point x="948" y="467.37"/>
      <point x="948" y="332" type="curve" smooth="yes"/>
      <point x="948" y="251" type="line"/>
      <point x="817" y="251" type="line"/>
      <point x="817" y="307" type="line" smooth="yes"/>
      <point x="817" y="413.791"/>
      <point x="767.172" y="437.365"/>
      <point x="724.215" y="437.365" type="curve" smooth="yes"/>
      <point x="707.236" y="437.365"/>
      <point x="691.331" y="433.683"/>
      <point x="680" y="430" type="curve" smooth="yes"/>
      <point x="657" y="422" type="line"/>
    </contour>
    <component base="si_Pa" xOffset="175"/>
  </outline>
</glyph>
<glyph name="si_Ga" format="1">
  <advance width="717"/>
  <unicode hex="0D9C"/>
  <outline>
    <contour>
      <point x="271" y="241" type="line"/>
      <point x="271" y="347" type="line"/>
      <point x="371" y="347" type="line"/>
      <point x="407.086" y="347"/>
      <point x="461" y="325.407"/>
      <point x="460.85" y="216" type="curve" smooth="yes"/>
      <point x="461" y="166" type="line" smooth="yes"/>
      <point x="461" y="45.3371"/>
      <point x="399.69" y="-8"/>
      <point x="283" y="-8" type="curve"/>
      <point x="283" y="135" type="line" smooth="yes"/>
      <point x="335.527" y="135"/>
      <point x="337" y="170.963"/>
      <point x="337" y="188" type="curve" smooth="yes"/>
      <point x="337" y="205.037"/>
      <point x="335.527" y="241"/>
      <point x="283" y="241" type="curve" smooth="yes"/>
    </contour>
    <contour>
      <point x="227" y="-8" type="line"/>
      <point x="87.704" y="-8"/>
      <point x="30.4201" y="81.7376"/>
      <point x="30.0791" y="198" type="curve" smooth="yes"/>
      <point x="30.0791" y="358" type="line" smooth="yes"/>
      <point x="30.4201" y="474.262"/>
      <point x="87.704" y="564"/>
      <point x="227" y="564" type="curve"/>
      <point x="227" y="421" type="line"/>
      <point x="174.887" y="421"/>
      <point x="171" y="375.857"/>
      <point x="171" y="348" type="curve" smooth="yes"/>
      <point x="171" y="198" type="line" smooth="yes"/>
      <point x="171" y="173.959"/>
      <point x="174.887" y="135"/>
      <point x="227" y="135" type="curve"/>
    </contour>
    <contour>
      <point x="490" y="-8" type="curve"/>
      <point x="490" y="135" type="line"/>
      <point x="542.113" y="135"/>
      <point x="546" y="173.959"/>
      <point x="546" y="198" type="curve" smooth="yes"/>
      <point x="546" y="348" type="line" smooth="yes"/>
      <point x="546" y="375.857"/>
      <point x="542.113" y="421"/>
      <point x="490" y="421" type="curve"/>
      <point x="490" y="564" type="line"/>
      <point x="629.296" y="564"/>
      <point x="686.58" y="474.262"/>
      <point x="686.921" y="358" type="curve" smooth="yes"/>
      <point x="686.921" y="198" type="line" smooth="yes"/>
      <point x="686.58" y="81.7376"/>
      <point x="629.296" y="-8"/>
    </contour>
    <contour>
      <point x="254" y="241" type="line" smooth="yes"/>
      <point x="254" y="350" type="line" smooth="yes"/>
      <point x="254" y="468.007"/>
      <point x="290.062" y="564"/>
      <point x="434" y="564" type="curve"/>
      <point x="434" y="421" type="line"/>
      <point x="388.193" y="421"/>
      <point x="393.466" y="376.492"/>
      <point x="392.835" y="350" type="curve" smooth="yes"/>
      <point x="393" y="240.5" type="line"/>
    </contour>
  </outline>
</glyph>
<glyph name="si_Nya" format="1">
  <advance width="1168"/>
  <unicode hex="0DA4"/>
  <outline>
    <contour>
      <point x="209" y="160" type="curve"/>
      <point x="326" y="255" type="line"/>
      <point x="344.91" y="239.066"/>
      <point x="359.861" y="220.713"/>
      <point x="359.88" y="202" type="curve"/>
      <point x="360" y="160" type="line" smooth="yes"/>
      <point x="360.054" y="141.248"/>
      <point x="374.791" y="131.885"/>
      <point x="389.521" y="131.885" type="curve" smooth="yes"/>
      <point x="404.264" y="131.885"/>
      <point x="419" y="141.265"/>
      <point x="419" y="160" type="curve" smooth="yes"/>
      <point x="419" y="202" type="line"/>
      <point x="518.88" y="202" type="line"/>
      <point x="519" y="162" type="line" smooth="yes"/>
      <point x="519.061" y="141.747"/>
      <point x="534.048" y="131.634"/>
      <point x="549.026" y="131.634" type="curve" smooth="yes"/>
      <point x="564.017" y="131.634"/>
      <point x="579" y="141.765"/>
      <point x="579" y="162" type="curve" smooth="yes"/>
      <point x="579.004" y="202.128" type="line" smooth="yes"/>
      <point x="579.004" y="233.327"/>
      <point x="572.873" y="258.736"/>
      <point x="530" y="276" type="curve"/>
      <point x="627.224" y="354.096" type="line"/>
      <point x="690.602" y="326.931"/>
      <point x="708" y="279.827"/>
      <point x="708" y="218" type="curve" smooth="yes"/>
      <point x="708" y="136" type="line" smooth="yes"/>
      <point x="708" y="47.0805"/>
      <point x="634.346" y="-7.17"/>
      <point x="563.539" y="-7.17" type="curve" smooth="yes"/>
      <point x="528.123" y="-7.17"/>
      <point x="493.418" y="6.40316"/>
      <point x="469" y="36" type="curve"/>
      <point x="448.556" y="6.1516"/>
      <point x="416.054" y="-6.59313"/>
      <point x="382.041" y="-6.59313" type="curve" smooth="yes"/>
      <point x="315.875" y="-6.59313"/>
      <point x="243.988" y="41.6331"/>
      <point x="244" y="106" type="curve" smooth="yes"/>
      <point x="244.003" y="121.756" type="line" smooth="yes"/>
      <point x="244.003" y="141.945"/>
      <point x="243.315" y="161.906"/>
      <point x="220.273" y="161.906" type="curve" smooth="yes"/>
      <point x="216.99" y="161.906"/>
      <point x="213.253" y="161.3"/>
    </contour>
    <contour>
      <point x="875" y="-1" type="line" smooth="yes"/>
      <point x="755" y="-1"/>
      <point x="648" y="58.3916"/>
      <point x="648" y="197" type="curve" smooth="yes"/>
      <point x="648" y="333.29"/>
      <point x="741" y="397"/>
      <point x="874" y="397" type="curve" smooth="yes"/>
      <point x="918" y="397" type="line"/>
      <point x="918" y="459"/>
      <point x="846" y="462"/>
      <point x="796" y="462.396" type="curve"/>
      <point x="796" y="592.392" type="line"/>
      <point x="932" y="592"/>
      <point x="1061" y="553"/>
      <point x="1061" y="397" type="curve" smooth="yes"/>
      <point x="1061" y="262" type="line"/>
      <point x="874" y="262" type="line" smooth="yes"/>
      <point x="835" y="262"/>
      <point x="791" y="256.19"/>
      <point x="791" y="197" type="curve" smooth="yes"/>
      <point x="791" y="145"/>
      <point x="838" y="135"/>
      <point x="875" y="135" type="curve" smooth="yes"/>
      <point x="912" y="135" type="line" smooth="yes"/>
      <point x="944.728" y="135"/>
      <point x="974" y="139"/>
      <point x="987" y="171" type="curve"/>
      <point x="1115" y="137" type="line"/>
      <point x="1090" y="51"/>
      <point x="1004.83" y="-0.868164"/>
      <point x="912" y="-1" type="curve" smooth="yes"/>
    </contour>
    <contour>
      <point x="111.039" y="-41" type="line"/>
      <point x="51.3975" y="36.1836"/>
      <point x="30" y="106.444"/>
      <point x="30" y="197" type="curve" smooth="yes"/>
      <point x="30" y="287" type="line" smooth="yes"/>
      <point x="30" y="466.643"/>
      <point x="137.514" y="554.131"/>
      <point x="242.876" y="554.131" type="curve" smooth="yes"/>
      <point x="263.612" y="554.131"/>
      <point x="285.348" y="553.326"/>
      <point x="326" y="533" type="curve"/>
      <point x="326" y="402" type="line"/>
      <point x="279.137" y="416.319"/>
      <point x="265.184" y="419.803"/>
      <point x="250.483" y="419.803" type="curve" smooth="yes"/>
      <point x="210.753" y="419.803"/>
      <point x="166" y="395.757"/>
      <point x="166" y="287" type="curve" smooth="yes"/>
      <point x="166" y="197" type="line" smooth="yes"/>
      <point x="166" y="116.436"/>
      <point x="176.558" y="75.5967"/>
      <point x="241" y="-1" type="curve"/>
    </contour>
    <contour>
      <point x="209" y="160" type="line"/>
      <point x="209" y="259" type="line"/>
      <point x="510" y="504" type="line"/>
      <point x="577.472" y="559.472"/>
      <point x="634.032" y="593.11"/>
      <point x="741" y="593.118" type="curve"/>
      <point x="741" y="462.197" type="line"/>
      <point x="679.073" y="462.351"/>
      <point x="640.832" y="429.886"/>
      <point x="604" y="400" type="curve"/>
      <point x="334" y="181.392" type="line"/>
    </contour>
    <contour>
      <point x="209" y="439" type="line"/>
      <point x="223" y="537"/>
      <point x="315.521" y="567"/>
      <point x="377" y="567" type="curve" smooth="yes"/>
      <point x="449.694" y="567"/>
      <point x="499" y="533"/>
      <point x="516" y="502" type="curve"/>
      <point x="424" y="402" type="line"/>
      <point x="424" y="437"/>
      <point x="393.169" y="446"/>
      <point x="377" y="446" type="curve" smooth="yes"/>
      <point x="343.069" y="446"/>
      <point x="326" y="422.741"/>
      <point x="326" y="402" type="curve"/>
    </contour>
    <contour>
      <point x="985" y="-205" type="curve" smooth="yes"/>
      <point x="865.999" y="-205"/>
      <point x="799" y="-137.261"/>
      <point x="799" y="-46" type="curve"/>
      <point x="936" y="-46" type="line"/>
      <point x="936" y="-62.1494"/>
      <point x="956.289" y="-79"/>
      <point x="985" y="-79" type="curve" smooth="yes"/>
      <point x="1005.69" y="-79"/>
      <point x="1029.83" y="-68.3711"/>
      <point x="1035" y="-48" type="curve"/>
      <point x="1168" y="-82" type="line"/>
      <point x="1146.12" y="-149.451"/>
      <point x="1090.5" y="-205"/>
    </contour>
  </outline>
</glyph>
<glyph name="si_Jnya" format="1">
  <advance width="1083"/>
  <unicode hex="0DA5"/>
  <outline>
    <contour>
      <point x="790" y="-8" type="line" smooth="yes"/>
      <point x="652.242" y="-8"/>
      <point x="583.006" y="88.2024"/>
      <point x="583.006" y="183.413" type="curve" smooth="yes"/>
      <point x="583.006" y="276.682"/>
      <point x="649.447" y="369"/>
      <point x="783" y="369" type="curve" smooth="yes"/>
      <point x="833" y="369" type="line"/>
      <point x="833" y="436.459"/>
      <point x="724.14" y="420.396"/>
      <point x="711" y="420.396" type="curve" smooth="yes"/>
      <point x="711" y="564.392" type="line"/>
      <point x="798" y="564"/>
      <point x="976" y="565"/>
      <point x="976" y="369" type="curve" smooth="yes"/>
      <point x="976" y="234" type="line"/>
      <point x="789" y="234" type="line" smooth="yes"/>
      <point x="741.407" y="234"/>
      <point x="718.57" y="208.434"/>
      <point x="718.57" y="182.414" type="curve" smooth="yes"/>
      <point x="718.57" y="155.451"/>
      <point x="743.091" y="128"/>
      <point x="790" y="128" type="curve" smooth="yes"/>
      <point x="812.223" y="128"/>
      <point x="822.977" y="128"/>
      <point x="827" y="128" type="curve" smooth="yes"/>
      <point x="859.728" y="128"/>
      <point x="889" y="132"/>
      <point x="902" y="164" type="curve"/>
      <point x="1030" y="130" type="line"/>
      <point x="1005" y="44"/>
      <point x="919.826" y="-7.86816"/>
      <point x="827" y="-8" type="curve" smooth="yes"/>
    </contour>
    <contour>
      <point x="30" y="197" type="curve" smooth="yes"/>
      <point x="30" y="287" type="line" smooth="yes"/>
      <point x="30" y="452"/>
      <point x="60.9932" y="564.245"/>
      <point x="265.051" y="564.245" type="curve" smooth="yes"/>
      <point x="316.372" y="564.245"/>
      <point x="369.684" y="564.082"/>
      <point x="421" y="564" type="curve"/>
      <point x="421" y="421" type="line"/>
      <point x="224" y="421" type="line" smooth="yes"/>
      <point x="174.46" y="421"/>
      <point x="166" y="376"/>
      <point x="166" y="287" type="curve" smooth="yes"/>
      <point x="166" y="197" type="line" smooth="yes"/>
      <point x="166" y="116.436"/>
      <point x="176.558" y="75.5967"/>
      <point x="241" y="-1" type="curve"/>
      <point x="111.039" y="-41" type="line"/>
      <point x="51.3975" y="36.1836"/>
      <point x="30" y="106.444"/>
    </contour>
    <contour>
      <point x="465" y="241" type="line"/>
      <point x="465" y="347" type="line"/>
      <point x="565" y="347" type="line"/>
      <point x="601.086" y="347"/>
      <point x="655" y="304.407"/>
      <point x="654.85" y="195" type="curve" smooth="yes"/>
      <point x="655" y="166" type="line" smooth="yes"/>
      <point x="655" y="45.3369"/>
      <point x="593.689" y="-8"/>
      <point x="477" y="-8" type="curve"/>
      <point x="477" y="135" type="line" smooth="yes"/>
      <point x="529.527" y="135"/>
      <point x="531" y="170.963"/>
      <point x="531" y="188" type="curve" smooth="yes"/>
      <point x="531" y="205.037"/>
      <point x="529.527" y="241"/>
      <point x="477" y="241" type="curve" smooth="yes"/>
    </contour>
    <contour>
      <point x="421" y="-8" type="line"/>
      <point x="281.704" y="-8"/>
      <point x="224.42" y="81.7373"/>
      <point x="224.079" y="198" type="curve" smooth="yes"/>
      <point x="224.079" y="358" type="line" smooth="yes"/>
      <point x="224.42" y="474.263"/>
      <point x="281.704" y="564"/>
      <point x="421" y="564" type="curve"/>
      <point x="421" y="421" type="line"/>
      <point x="368.888" y="421"/>
      <point x="365" y="375.857"/>
      <point x="365" y="348" type="curve" smooth="yes"/>
      <point x="365" y="198" type="line" smooth="yes"/>
      <point x="365" y="173.959"/>
      <point x="368.888" y="135"/>
      <point x="421" y="135" type="curve"/>
    </contour>
    <contour>
      <point x="448" y="241" type="line" smooth="yes"/>
      <point x="448" y="350" type="line" smooth="yes"/>
      <point x="448" y="468.007"/>
      <point x="484.062" y="564"/>
      <point x="628" y="564" type="curve"/>
      <point x="656" y="564" type="line"/>
      <point x="656" y="421" type="line"/>
      <point x="628" y="421" type="line"/>
      <point x="582.192" y="421"/>
      <point x="587.466" y="376.492"/>
      <point x="586.835" y="350" type="curve" smooth="yes"/>
      <point x="587" y="240.5" type="line"/>
    </contour>
    <contour>
      <point x="900" y="-212" type="curve" smooth="yes"/>
      <point x="780.999" y="-212"/>
      <point x="714" y="-144.261"/>
      <point x="714" y="-53" type="curve"/>
      <point x="851" y="-53" type="line"/>
      <point x="851" y="-69.1494"/>
      <point x="871.289" y="-86"/>
      <point x="900" y="-86" type="curve" smooth="yes"/>
      <point x="920.689" y="-86"/>
      <point x="944.827" y="-75.3711"/>
      <point x="950" y="-55" type="curve"/>
      <point x="1083" y="-89" type="line"/>
      <point x="1061.12" y="-156.451"/>
      <point x="1005.5" y="-212"/>
    </contour>
  </outline>
</glyph>
<glyph name="si_Ttha" format="1">
  <advance width="593"/>
  <unicode hex="0DA8"/>
  <outline>
    <contour>
      <point x="212" y="-8" type="curve" smooth="yes"/>
      <point x="105.004" y="-8"/>
      <point x="30" y="58"/>
      <point x="30" y="160" type="curve" smooth="yes"/>
      <point x="29.999" y="261.926" type="line" smooth="yes"/>
      <point x="29.999" y="343.692"/>
      <point x="44.667" y="474"/>
      <point x="240.667" y="474" type="curve"/>
      <point x="263" y="474" type="line"/>
      <point x="263" y="336" type="line"/>
      <point x="240.667" y="336" type="line"/>
      <point x="200.667" y="336"/>
      <point x="168" y="322"/>
      <point x="168" y="262" type="curve" smooth="yes"/>
      <point x="168" y="262"/>
      <point x="168" y="166"/>
      <point x="168" y="166" type="curve" smooth="yes"/>
      <point x="168" y="154"/>
      <point x="177" y="132"/>
      <point x="207" y="132" type="curve" smooth="yes"/>
      <point x="237" y="132"/>
      <point x="245" y="152.875"/>
      <point x="245" y="166" type="curve" smooth="yes"/>
      <point x="245" y="202" type="line"/>
      <point x="345" y="202" type="line"/>
      <point x="345" y="166" type="line" smooth="yes"/>
      <point x="345" y="152.875"/>
      <point x="353" y="132"/>
      <point x="383" y="132" type="curve" smooth="yes"/>
      <point x="413.769" y="132"/>
      <point x="423" y="154"/>
      <point x="423" y="166" type="curve" smooth="yes"/>
      <point x="423" y="202" type="line"/>
      <point x="563" y="202" type="line"/>
      <point x="563" y="160" type="line" smooth="yes"/>
      <point x="563" y="58"/>
      <point x="496.381" y="-8"/>
      <point x="404" y="-8" type="curve" smooth="yes"/>
      <point x="370.151" y="-8"/>
      <point x="328.925" y="3.4668"/>
      <point x="300" y="35" type="curve"/>
      <point x="276.108" y="3.4668"/>
      <point x="239.959" y="-8"/>
    </contour>
    <contour>
      <point x="423" y="195" type="line"/>
      <point x="423" y="498" type="line" smooth="yes"/>
      <point x="423" y="577"/>
      <point x="406.252" y="616"/>
      <point x="328" y="616" type="curve"/>
      <point x="328" y="616"/>
      <point x="328" y="616"/>
      <point x="328" y="616" type="curve" smooth="yes"/>
      <point x="328" y="563.071"/>
      <point x="353.652" y="547.238"/>
      <point x="387" y="540" type="curve"/>
      <point x="387" y="454" type="line"/>
      <point x="283.619" y="473.607"/>
      <point x="248" y="544.038"/>
      <point x="248" y="617" type="curve" smooth="yes"/>
      <point x="248" y="755" type="line"/>
      <point x="328" y="755" type="line"/>
      <point x="462.273" y="755"/>
      <point x="563" y="700"/>
      <point x="563" y="517" type="curve" smooth="yes"/>
      <point x="563" y="195" type="line"/>
    </contour>
  </outline>
</glyph>
<glyph name="si_Na" format="1">
  <advance width="758"/>
  <unicode hex="0DB1"/>
  <outline>
    <contour>
      <point x="532" y="-8" type="curve"/>
      <point x="532" y="135" type="line"/>
      <point x="584.112" y="135"/>
      <point x="588" y="173.959"/>
      <point x="588" y="198" type="curve" smooth="yes"/>
      <point x="588" y="317" type="line" smooth="yes"/>
      <point x="588" y="391.167"/>
      <point x="530.397" y="436.016"/>
      <point x="470.745" y="436.016" type="curve" smooth="yes"/>
      <point x="434.879" y="436.016"/>
      <point x="399.422" y="418.933"/>
      <point x="373" y="384" type="curve" smooth="yes"/>
      <point x="295.093" y="281" type="line"/>
      <point x="239.657" y="208"/>
      <point x="201.849" y="165"/>
      <point x="154" y="165" type="curve"/>
      <point x="125" y="165" type="line"/>
      <point x="125" y="304" type="line" smooth="yes"/>
      <point x="149.771" y="303.963" type="line" smooth="yes"/>
      <point x="163.046" y="303.963"/>
      <point x="188.404" y="336.961"/>
      <point x="214.476" y="375.339" type="curve" smooth="yes"/>
      <point x="240.547" y="413.717"/>
      <point x="267.331" y="457.476"/>
      <point x="283.456" y="479" type="curve"/>
      <point x="325.869" y="542.88"/>
      <point x="400.3" y="573.748"/>
      <point x="476.268" y="573.748" type="curve" smooth="yes"/>
      <point x="600.092" y="573.748"/>
      <point x="728" y="491.739"/>
      <point x="728" y="337" type="curve" smooth="yes"/>
      <point x="728" y="198" type="line" smooth="yes"/>
      <point x="727.58" y="81.7373"/>
      <point x="671.296" y="-8"/>
    </contour>
    <contour>
      <point x="30" y="256" type="curve"/>
      <point x="30" y="344" type="line"/>
      <point x="148" y="344" type="line"/>
      <point x="148" y="313"/>
      <point x="148" y="301"/>
      <point x="148" y="270" type="curve" smooth="yes"/>
      <point x="148" y="150.343"/>
      <point x="208.982" y="127"/>
      <point x="278" y="127" type="curve" smooth="yes"/>
      <point x="331.142" y="127"/>
      <point x="362.45" y="166.525"/>
      <point x="362.45" y="202.924" type="curve" smooth="yes"/>
      <point x="362.45" y="221.755"/>
      <point x="354.07" y="239.749"/>
      <point x="336" y="251" type="curve"/>
      <point x="412.215" y="354.312" type="line"/>
      <point x="472.659" y="322.193"/>
      <point x="502.238" y="261.013"/>
      <point x="502.238" y="197.943" type="curve" smooth="yes"/>
      <point x="502.238" y="97.3508"/>
      <point x="427.008" y="-8.00007"/>
      <point x="281.777" y="-8.00007" type="curve" smooth="yes"/>
      <point x="133.896" y="-8.00007"/>
      <point x="30" y="85.1581"/>
    </contour>
    <contour>
      <point x="32" y="439" type="line"/>
      <point x="46" y="537"/>
      <point x="138.521" y="567"/>
      <point x="200" y="567" type="curve" smooth="yes"/>
      <point x="268.511" y="567"/>
      <point x="331" y="522"/>
      <point x="331" y="506" type="curve"/>
      <point x="247" y="402" type="line"/>
      <point x="247" y="437"/>
      <point x="216.169" y="446"/>
      <point x="200" y="446" type="curve" smooth="yes"/>
      <point x="166.069" y="446"/>
      <point x="149" y="422.741"/>
      <point x="149" y="402" type="curve"/>
    </contour>
  </outline>
</glyph>
<glyph name="si_Bha" format="1">
  <advance width="754"/>
  <unicode hex="0DB7"/>
  <outline>
    <contour>
      <point x="429.844" y="344.25" type="curve"/>
      <point x="462.504" y="338.728"/>
      <point x="497.972" y="304.767"/>
      <point x="497.85" y="216" type="curve" smooth="yes"/>
      <point x="498" y="166" type="line" smooth="yes"/>
      <point x="498" y="45.3369"/>
      <point x="436.689" y="-8"/>
      <point x="320" y="-8" type="curve"/>
      <point x="320" y="135" type="line"/>
      <point x="372.527" y="135"/>
      <point x="374" y="170.963"/>
      <point x="374" y="188" type="curve" smooth="yes"/>
      <point x="374" y="204.457"/>
      <point x="372.626" y="238.572"/>
      <point x="325.191" y="240.877" type="curve" smooth="yes"/>
      <point x="291" y="241" type="line"/>
      <point x="291" y="350" type="line" smooth="yes"/>
      <point x="291" y="468.007"/>
      <point x="327.062" y="564"/>
      <point x="471" y="564" type="curve"/>
      <point x="471" y="421" type="line"/>
      <point x="428.201" y="421"/>
      <point x="429.389" y="380.318"/>
      <point x="429.787" y="350.92" type="curve" smooth="yes"/>
      <point x="429.818" y="348.62"/>
      <point x="429.844" y="346.388"/>
    </contour>
    <contour>
      <point x="527" y="-8" type="curve"/>
      <point x="527" y="135" type="line"/>
      <point x="579.112" y="135"/>
      <point x="583" y="173.959"/>
      <point x="583" y="198" type="curve" smooth="yes"/>
      <point x="583" y="353" type="line" smooth="yes"/>
      <point x="583" y="380.857"/>
      <point x="579.112" y="421"/>
      <point x="527" y="421" type="curve"/>
      <point x="527" y="564" type="line"/>
      <point x="666.296" y="564"/>
      <point x="723.921" y="475.263"/>
      <point x="723.921" y="353" type="curve" smooth="yes"/>
      <point x="723.921" y="198" type="line" smooth="yes"/>
      <point x="723.58" y="81.7373"/>
      <point x="666.296" y="-8"/>
    </contour>
    <contour>
      <point x="265" y="-8" type="line"/>
      <point x="125.704" y="-8"/>
      <point x="68.4199" y="81.7373"/>
      <point x="68.0791" y="198" type="curve" smooth="yes"/>
      <point x="68.0791" y="254" type="line" smooth="yes"/>
      <point x="68.1364" y="268.984"/>
      <point x="70.3663" y="283.395"/>
      <point x="74.6032" y="297" type="curve"/>
      <point x="30" y="297" type="line"/>
      <point x="30" y="415" type="line"/>
      <point x="241" y="415" type="line"/>
      <point x="241" y="445.826"/>
      <point x="229.426" y="461.951"/>
      <point x="198.15" y="461.951" type="curve" smooth="yes"/>
      <point x="180.244" y="461.951"/>
      <point x="162.712" y="454.054"/>
      <point x="159" y="437.352" type="curve"/>
      <point x="60" y="463.352" type="line"/>
      <point x="82.7783" y="532.349"/>
      <point x="142.161" y="563.617"/>
      <point x="200.772" y="563.617" type="curve" smooth="yes"/>
      <point x="272.971" y="563.617"/>
      <point x="344" y="516.171"/>
      <point x="344" y="433.352" type="curve" smooth="yes"/>
      <point x="344" y="297" type="line"/>
      <point x="265" y="297" type="line" smooth="yes"/>
      <point x="212.888" y="297"/>
      <point x="209" y="263.607"/>
      <point x="209" y="243" type="curve" smooth="yes"/>
      <point x="209" y="199" type="line" smooth="yes"/>
      <point x="209" y="174.577"/>
      <point x="212.888" y="135"/>
      <point x="265" y="135" type="curve"/>
    </contour>
  </outline>
</glyph>
<glyph name="si_MatraAa" format="1">
  <advance width="277"/>
  <unicode hex="0DCF"/>
  <outline>
    <contour>
      <point x="30" y="0" type="line"/>
      <point x="30" y="143" type="line"/>
      <point x="50" y="143" type="line"/>
      <point x="102.112" y="143"/>
      <point x="106" y="181.959"/>
      <point x="106" y="206" type="curve" smooth="yes"/>
      <point x="106" y="358" type="line" smooth="yes"/>
      <point x="106" y="385.857"/>
      <point x="102.112" y="431"/>
      <point x="50" y="431" type="curve"/>
      <point x="30" y="431" type="line"/>
      <point x="30" y="574" type="line"/>
      <point x="50" y="574" type="line"/>
      <point x="189.296" y="574"/>
      <point x="246.58" y="484.263"/>
      <point x="246.921" y="368" type="curve" smooth="yes"/>
      <point x="246.921" y="206" type="line" smooth="yes"/>
      <point x="246.58" y="89.7373"/>
      <point x="189.296" y="0"/>
      <point x="50" y="0" type="curve"/>
    </contour>
  </outline>
</glyph>
<glyph name="zwnj" format="1">
  <advance width="0"/>
  <unicode hex="200C"/>
  <outline>
    <contour>
      <point x="-63" y="-1" type="line"/>
      <point x="-63" y="733" type="line"/>
      <point x="59" y="733" type="line"/>
      <point x="59" y="-1" type="line"/>
    </contour>
  </outline>
</glyph>
<glyph name="dagger" format="1">
  <advance width="453"/>
  <unicode hex="2020"/>
  <outline>
    <contour>
      <point x="26" y="450" type="line"/>
      <point x="26" y="577" type="line"/>
      <point x="156" y="577" type="line"/>
      <point x="156" y="764" type="line"/>
      <point x="297" y="764" type="line"/>
      <point x="297" y="577" type="line"/>
      <point x="427" y="577" type="line"/>
      <point x="427" y="450" type="line"/>
      <point x="297" y="450" type="line"/>
      <point x="297" y="-56" type="line"/>
      <point x="156" y="-56" type="line"/>
      <point x="156" y="450" type="line"/>
    </contour>
  </outline>
</glyph>
<glyph name="uni2113" format="1">
  <advance width="196"/>
  <unicode hex="2113"/>
  <outline>
    <contour>
      <point x="39" y="191" type="curve" smooth="yes"/>
      <point x="39" y="698" type="line"/>
      <point x="170" y="698" type="line"/>
      <point x="170" y="191" type="line"/>
      <point x="171" y="145"/>
      <point x="221" y="135"/>
      <point x="226" y="135" type="curve"/>
      <point x="226" y="-7" type="line"/>
      <point x="166" y="-7"/>
      <point x="39" y="47"/>
    </contour>
  </outline>
</glyph>
<glyph name="estimated" format="1">
  <advance width="531"/>
  <unicode hex="212E"/>
  <outline>
    <contour>
      <point x="238" y="-3" type="line"/>
      <point x="133" y="-3"/>
      <point x="30" y="80"/>
      <point x="30" y="196" type="curve" smooth="yes"/>
      <point x="30" y="506" type="line" smooth="yes"/>
      <point x="30" y="622"/>
      <point x="133" y="705"/>
      <point x="238" y="705" type="curve"/>
      <point x="238" y="565" type="line"/>
      <point x="206" y="562"/>
      <point x="170" y="538"/>
      <point x="170" y="471" type="curve" smooth="yes"/>
      <point x="170" y="406" type="line"/>
      <point x="361" y="406" type="line"/>
      <point x="361" y="471" type="line" smooth="yes"/>
      <point x="361" y="538"/>
      <point x="325" y="562"/>
      <point x="293" y="565" type="curve"/>
      <point x="293" y="705" type="line"/>
      <point x="398" y="705"/>
      <point x="501" y="622"/>
      <point x="501" y="506" type="curve" smooth="yes"/>
      <point x="501" y="266" type="line"/>
      <point x="170" y="266" type="line"/>
      <point x="170" y="231" type="line" smooth="yes"/>
      <point x="170" y="164"/>
      <point x="208" y="140"/>
      <point x="238" y="137" type="curve"/>
    </contour>
    <contour>
      <point x="293" y="-3" type="curve"/>
      <point x="293" y="137" type="line"/>
      <point x="320" y="140"/>
      <point x="353" y="159"/>
      <point x="360" y="212" type="curve"/>
      <point x="500" y="178" type="line"/>
      <point x="490" y="72"/>
      <point x="392" y="-3"/>
    </contour>
  </outline>
</glyph>
<glyph name="product" format="1">
  <advance width="534"/>
  <unicode hex="220F"/>
  <outline>
    <contour>
      <point x="30" y="565" type="line"/>
      <point x="30" y="700" type="line"/>
      <point x="504" y="700" type="line"/>
      <point x="504" y="565" type="line"/>
      <point x="461" y="565" type="line"/>
      <point x="461" y="-140" type="line"/>
      <point x="331" y="-140" type="line"/>
      <point x="331" y="565" type="line"/>
      <point x="203" y="565" type="line"/>
      <point x="203" y="-140" type="line"/>
      <point x="73" y="-140" type="line"/>
      <point x="73" y="565" type="line"/>
    </contour>
  </outline>
</glyph>
<glyph name="summation" format="1">
  <advance width="676"/>
  <unicode hex="2211"/>
  <outline>
    <contour>
      <point x="312" y="560" type="line"/>
      <point x="215" y="691" type="line"/>
      <point x="215" y="700" type="line"/>
      <point x="528" y="700" type="line"/>
      <point x="528" y="560" type="line"/>
    </contour>
    <contour>
      <point x="30" y="-140" type="line"/>
      <point x="30" y="9" type="line"/>
      <point x="250" y="311" type="line"/>
      <point x="30" y="608" type="line"/>
      <point x="30" y="700" type="line"/>
      <point x="140" y="700" type="line"/>
      <point x="429" y="307" type="line"/>
      <point x="207" y="10" type="line"/>
      <point x="528" y="10" type="line"/>
      <point x="528" y="-140" type="line"/>
    </contour>
  </outline>
</glyph>
<glyph name="quotedbl.alt" format="1">
  <advance width="367"/>
  <outline>
    <contour>
      <point x="30" y="476" type="line"/>
      <point x="30" y="700" type="line"/>
      <point x="157" y="700" type="line"/>
      <point x="157" y="476" type="line"/>
    </contour>
    <contour>
      <point x="210" y="476" type="line"/>
      <point x="210" y="700" type="line"/>
      <point x="337" y="700" type="line"/>
      <point x="337" y="476" type="line"/>
    </contour>
  </outline>
</glyph>
<glyph name="si_DIi" format="1">
  <advance width="552"/>
  <outline>
    <contour>
      <point x="353" y="553" type="curve" smooth="yes"/>
      <point x="288" y="553"/>
      <point x="235" y="606"/>
      <point x="235" y="671" type="curve" smooth="yes"/>
      <point x="235" y="736"/>
      <point x="288" y="789"/>
      <point x="353" y="789" type="curve" smooth="yes"/>
      <point x="418" y="789"/>
      <point x="471" y="736"/>
      <point x="471" y="671" type="curve" smooth="yes"/>
      <point x="471" y="606"/>
      <point x="418" y="553"/>
    </contour>
    <contour>
      <point x="30" y="602" type="line"/>
      <point x="30" y="630" type="line" smooth="yes"/>
      <point x="30" y="723.409"/>
      <point x="106.747" y="789"/>
      <point x="206" y="789" type="curve" smooth="yes"/>
      <point x="353" y="789" type="line" smooth="yes"/>
      <point x="416.976" y="789"/>
      <point x="471" y="736.729"/>
      <point x="471" y="671" type="curve"/>
      <point x="317" y="622" type="line"/>
      <point x="317" y="657.112"/>
      <point x="301.857" y="659"/>
      <point x="275" y="659" type="curve" smooth="yes"/>
      <point x="222" y="659" type="line" smooth="yes"/>
      <point x="195.143" y="659"/>
      <point x="160" y="654.112"/>
      <point x="160" y="602" type="curve"/>
    </contour>
    <component base="si_Da"/>
  </outline>
</glyph>
<glyph name="si_DVU" format="1">
  <advance width="758"/>
  <outline>
    <contour>
      <point x="93.0391" y="-28" type="line"/>
      <point x="44.3975" y="41.1836"/>
      <point x="30" y="78.4443"/>
      <point x="30" y="169" type="curve" smooth="yes"/>
      <point x="30" y="289" type="line" smooth="yes"/>
      <point x="30" y="422.903"/>
      <point x="108.927" y="495.749"/>
      <point x="214.144" y="495.749" type="curve" smooth="yes"/>
      <point x="247.06" y="495.749"/>
      <point x="282.549" y="488.62"/>
      <point x="319" y="474" type="curve"/>
      <point x="319" y="375" type="line"/>
      <point x="267.888" y="388.814"/>
      <point x="254.696" y="390.472"/>
      <point x="242.748" y="390.472" type="curve" smooth="yes"/>
      <point x="194.831" y="390.472"/>
      <point x="166" y="360.238"/>
      <point x="166" y="289" type="curve" smooth="yes"/>
      <point x="166" y="169" type="line" smooth="yes"/>
      <point x="166" y="88.4355"/>
      <point x="179.558" y="66.5967"/>
      <point x="223" y="12" type="curve"/>
    </contour>
    <component base="si_VU" xOffset="190"/>
  </outline>
</glyph>
<glyph name="si_Ddh.halant" format="1">
  <advance width="632"/>
  <outline>
    <contour>
      <point x="466.001" y="518" type="line"/>
      <point x="466.001" y="819" type="line"/>
      <point x="602.001" y="819" type="line"/>
      <point x="602.001" y="518" type="line"/>
    </contour>
    <component base="si_Ddha"/>
  </outline>
</glyph>
<glyph name="si_DdhIi" format="1">
  <advance width="632"/>
  <outline>
    <contour>
      <point x="247" y="639" type="line"/>
      <point x="144.586" y="639"/>
      <point x="93.6025" y="709.544"/>
      <point x="93.6025" y="780.19" type="curve" smooth="yes"/>
      <point x="93.6025" y="851.043"/>
      <point x="144.885" y="922"/>
      <point x="247" y="922" type="curve" smooth="yes"/>
      <point x="494" y="922" type="line" smooth="yes"/>
      <point x="554" y="922"/>
      <point x="602" y="874"/>
      <point x="602" y="814" type="curve" smooth="yes"/>
      <point x="602" y="754"/>
      <point x="554" y="706"/>
      <point x="494" y="706" type="curve" smooth="yes"/>
      <point x="446.286" y="706"/>
      <point x="402.352" y="754.444"/>
      <point x="402.352" y="792.821" type="curve" smooth="yes"/>
      <point x="402.352" y="797.39"/>
      <point x="402.974" y="801.815"/>
      <point x="405.286" y="806" type="curve"/>
      <point x="405.286" y="806" type="line"/>
      <point x="247" y="806" type="line" smooth="yes"/>
      <point x="227" y="806"/>
      <point x="216.348" y="793.325"/>
      <point x="216.348" y="780.613" type="curve" smooth="yes"/>
      <point x="216.348" y="767.825"/>
      <point x="226.626" y="755"/>
      <point x="247" y="755" type="curve"/>
    </contour>
    <component base="si_Ddha"/>
  </outline>
</glyph>
<glyph name="si_DhI" format="1">
  <advance width="593"/>
  <outline>
    <contour>
      <point x="212" y="-8" type="curve" smooth="yes"/>
      <point x="105.004" y="-8"/>
      <point x="30" y="58"/>
      <point x="30" y="160" type="curve" smooth="yes"/>
      <point x="29.999" y="261.926" type="line" smooth="yes"/>
      <point x="29.999" y="343.692"/>
      <point x="44.667" y="474"/>
      <point x="240.667" y="474" type="curve"/>
      <point x="263" y="474" type="line"/>
      <point x="263" y="336" type="line"/>
      <point x="240.667" y="336" type="line"/>
      <point x="200.667" y="336"/>
      <point x="168" y="322"/>
      <point x="168" y="262" type="curve" smooth="yes"/>
      <point x="168" y="166" type="line" smooth="yes"/>
      <point x="168" y="154"/>
      <point x="177" y="132"/>
      <point x="207" y="132" type="curve" smooth="yes"/>
      <point x="237" y="132"/>
      <point x="245" y="152.875"/>
      <point x="245" y="166" type="curve" smooth="yes"/>
      <point x="245" y="202" type="line"/>
      <point x="345" y="202" type="line"/>
      <point x="345" y="166" type="line" smooth="yes"/>
      <point x="345" y="152.875"/>
      <point x="353" y="132"/>
      <point x="383" y="132" type="curve" smooth="yes"/>
      <point x="413" y="132"/>
      <point x="422" y="154"/>
      <point x="422" y="166" type="curve" smooth="yes"/>
      <point x="422" y="200" type="line"/>
      <point x="563" y="200" type="line"/>
      <point x="563" y="160" type="line" smooth="yes"/>
      <point x="563" y="58"/>
      <point x="496.381" y="-8"/>
      <point x="404" y="-8" type="curve" smooth="yes"/>
      <point x="370.151" y="-8"/>
      <point x="328.925" y="3.4668"/>
      <point x="300" y="35" type="curve"/>
      <point x="276.108" y="3.4668"/>
      <point x="239.959" y="-8"/>
    </contour>
    <contour>
      <point x="218.667" y="512" type="line"/>
      <point x="100.542" y="512"/>
      <point x="41.292" y="570.065"/>
      <point x="41.292" y="670.735" type="curve" smooth="yes"/>
      <point x="41.292" y="744.907"/>
      <point x="100.292" y="819"/>
      <point x="218.667" y="819" type="curve"/>
      <point x="271.5" y="819" type="line"/>
      <point x="271.5" y="703" type="line"/>
      <point x="197.667" y="703" type="line"/>
      <point x="177.167" y="703"/>
      <point x="166.917" y="690.25"/>
      <point x="166.917" y="677.5" type="curve" smooth="yes"/>
      <point x="166.917" y="664.75"/>
      <point x="177.167" y="652"/>
      <point x="197.667" y="652" type="curve"/>
      <point x="331.667" y="652" type="line"/>
      <point x="331.667" y="512" type="line"/>
    </contour>
    <contour>
      <point x="422" y="200" type="line"/>
      <point x="422" y="446" type="line" smooth="yes"/>
      <point x="422" y="504"/>
      <point x="381.403" y="512"/>
      <point x="331.667" y="512" type="curve"/>
      <point x="331.667" y="652" type="line"/>
      <point x="491.305" y="652"/>
      <point x="563" y="590"/>
      <point x="563" y="473" type="curve" smooth="yes"/>
      <point x="563" y="200" type="line"/>
    </contour>
    <contour>
      <point x="417.667" y="673" type="line"/>
      <point x="417.667" y="700"/>
      <point x="393" y="703"/>
      <point x="347.667" y="703" type="curve" smooth="yes"/>
      <point x="327" y="703" type="line"/>
      <point x="327" y="819" type="line"/>
      <point x="379.667" y="819" type="line" smooth="yes"/>
      <point x="508.026" y="819"/>
      <point x="553" y="756"/>
      <point x="553" y="673" type="curve"/>
    </contour>
  </outline>
</glyph>
<glyph name="si_GRa" format="1">
  <advance width="717"/>
  <outline>
    <contour>
      <point x="389" y="-103" type="line"/>
      <point x="398" y="-103" type="line" smooth="yes"/>
      <point x="546" y="-103"/>
      <point x="547.25" y="0"/>
      <point x="522" y="0" type="curve"/>
      <point x="655" y="89" type="line"/>
      <point x="726.992" y="-37.9238"/>
      <point x="636" y="-234"/>
      <point x="426" y="-234" type="curve" smooth="yes"/>
      <point x="389.115" y="-233.947" type="line"/>
    </contour>
    <contour>
      <point x="334.115" y="-233.947" type="line"/>
      <point x="306" y="-234" type="line" smooth="yes"/>
      <point x="181" y="-234"/>
      <point x="56.833" y="-165.25"/>
      <point x="56.833" y="-37.0908" type="curve"/>
      <point x="197.833" y="-37.0908" type="line"/>
      <point x="197.833" y="-72.5898"/>
      <point x="250" y="-103"/>
      <point x="314" y="-103" type="curve" smooth="yes"/>
      <point x="334" y="-103" type="line"/>
    </contour>
    <component base="si_Ga"/>
  </outline>
</glyph>
<glyph name="si_JUu" format="1">
  <advance width="653"/>
  <outline>
    <contour>
      <point x="50" y="-34" type="line"/>
      <point x="90.4791" y="-59.333"/>
      <point x="126.005" y="-67.7773"/>
      <point x="158.741" y="-67.7773" type="curve" smooth="yes"/>
      <point x="204.603" y="-67.7773"/>
      <point x="242.648" y="-34"/>
      <point x="285" y="-34" type="curve"/>
      <point x="285" y="-174" type="line"/>
      <point x="242.648" y="-174"/>
      <point x="204.603" y="-204.777"/>
      <point x="158.741" y="-204.777" type="curve" smooth="yes"/>
      <point x="126.005" y="-204.777"/>
      <point x="90.4791" y="-197.083"/>
      <point x="50" y="-174" type="curve"/>
    </contour>
    <contour>
      <point x="343" y="-34" type="line"/>
      <point x="366.071" y="-34"/>
      <point x="406.987" y="-39.9221"/>
      <point x="438" y="-61" type="curve"/>
      <point x="438" y="-205" type="line"/>
      <point x="402.858" y="-180.252"/>
      <point x="371.5" y="-174"/>
      <point x="343" y="-174" type="curve"/>
    </contour>
    <contour>
      <point x="438" y="131" type="line"/>
      <point x="578" y="131" type="line"/>
      <point x="578" y="-205" type="line"/>
      <point x="438" y="-205" type="line"/>
    </contour>
    <component base="si_Ja"/>
  </outline>
</glyph>
<glyph name="si_KUu" format="1">
  <advance width="808"/>
  <outline>
    <contour>
      <point x="30" y="259" type="line"/>
      <point x="301" y="480" type="line"/>
      <point x="360.89" y="541.665"/>
      <point x="444.691" y="573.854"/>
      <point x="524.916" y="573.854" type="curve" smooth="yes"/>
      <point x="651.939" y="573.854"/>
      <point x="770" y="493.158"/>
      <point x="770" y="321" type="curve" smooth="yes"/>
      <point x="770" y="250" type="line" smooth="yes"/>
      <point x="770.021" y="237.393"/>
      <point x="769.555" y="214"/>
      <point x="760" y="202" type="curve"/>
      <point x="571" y="202" type="line"/>
      <point x="611.584" y="202"/>
      <point x="629.883" y="221.196"/>
      <point x="630" y="249.375" type="curve" smooth="yes"/>
      <point x="630" y="307" type="line" smooth="yes"/>
      <point x="630" y="382.237"/>
      <point x="572.398" y="433.629"/>
      <point x="509.089" y="433.629" type="curve" smooth="yes"/>
      <point x="480.642" y="433.629"/>
      <point x="451.043" y="423.253"/>
      <point x="425" y="400" type="curve" smooth="yes"/>
      <point x="155" y="181.392" type="line"/>
      <point x="30" y="160" type="line"/>
    </contour>
    <contour>
      <point x="30" y="439" type="line"/>
      <point x="44" y="537"/>
      <point x="136.521" y="567"/>
      <point x="198" y="567" type="curve" smooth="yes"/>
      <point x="270.695" y="567"/>
      <point x="320" y="533"/>
      <point x="337" y="502" type="curve"/>
      <point x="245" y="402" type="line"/>
      <point x="245" y="437"/>
      <point x="214.169" y="446"/>
      <point x="198" y="446" type="curve" smooth="yes"/>
      <point x="164.069" y="446"/>
      <point x="147" y="422.741"/>
      <point x="147" y="402" type="curve"/>
    </contour>
    <contour>
      <point x="30" y="160" type="curve"/>
      <point x="147" y="255" type="line"/>
      <point x="165.91" y="239.066"/>
      <point x="180.861" y="220.713"/>
      <point x="180.88" y="202" type="curve"/>
      <point x="181" y="160" type="line" smooth="yes"/>
      <point x="181.055" y="141.248"/>
      <point x="195.792" y="131.885"/>
      <point x="210.521" y="131.885" type="curve" smooth="yes"/>
      <point x="225.264" y="131.885"/>
      <point x="240" y="141.265"/>
      <point x="240" y="160" type="curve" smooth="yes"/>
      <point x="240" y="202" type="line"/>
      <point x="339.88" y="202" type="line"/>
      <point x="340" y="162" type="line" smooth="yes"/>
      <point x="340.06" y="141.747"/>
      <point x="355.047" y="131.634"/>
      <point x="370.025" y="131.634" type="curve" smooth="yes"/>
      <point x="385.017" y="131.634"/>
      <point x="400" y="141.765"/>
      <point x="400" y="162" type="curve" smooth="yes"/>
      <point x="400.004" y="202.128" type="line" smooth="yes"/>
      <point x="400.004" y="233.327"/>
      <point x="393.873" y="258.737"/>
      <point x="351" y="276" type="curve"/>
      <point x="448.224" y="354.096" type="line"/>
      <point x="511.602" y="326.931"/>
      <point x="529" y="279.827"/>
      <point x="529" y="218" type="curve" smooth="yes"/>
      <point x="529" y="136" type="line" smooth="yes"/>
      <point x="529" y="47.0805"/>
      <point x="455.346" y="-7.17"/>
      <point x="384.54" y="-7.17" type="curve" smooth="yes"/>
      <point x="349.123" y="-7.17"/>
      <point x="314.418" y="6.40316"/>
      <point x="290" y="36" type="curve"/>
      <point x="269.556" y="6.1516"/>
      <point x="237.055" y="-6.59313"/>
      <point x="203.041" y="-6.59313" type="curve" smooth="yes"/>
      <point x="136.876" y="-6.59313"/>
      <point x="64.988" y="41.6331"/>
      <point x="65" y="106" type="curve" smooth="yes"/>
      <point x="65.0029" y="121.756" type="line" smooth="yes"/>
      <point x="65.0029" y="141.945"/>
      <point x="64.3154" y="161.906"/>
      <point x="41.2734" y="161.906" type="curve" smooth="yes"/>
      <point x="37.9902" y="161.906"/>
      <point x="34.2529" y="161.3"/>
    </contour>
    <contour>
      <point x="571" y="202" type="line"/>
      <point x="808" y="202" type="line"/>
      <point x="808" y="132" type="line"/>
      <point x="741" y="90" type="line"/>
      <point x="808" y="90" type="line"/>
      <point x="808" y="20" type="line"/>
      <point x="763" y="20" type="line" smooth="yes"/>
      <point x="743.469" y="20"/>
      <point x="734" y="11.3271"/>
      <point x="734" y="-18" type="curve" smooth="yes"/>
      <point x="734" y="-47" type="line" smooth="yes"/>
      <point x="734.12" y="-66.833"/>
      <point x="744.776" y="-75"/>
      <point x="767" y="-75" type="curve" smooth="yes"/>
      <point x="798" y="-75" type="line"/>
      <point x="798" y="-205" type="line"/>
      <point x="726.19" y="-205.003" type="line" smooth="yes"/>
      <point x="670.066" y="-205.003"/>
      <point x="594" y="-162.81"/>
      <point x="594" y="-75" type="curve" smooth="yes"/>
      <point x="593.945" y="-31" type="line" smooth="yes"/>
      <point x="593.945" y="-1.08734"/>
      <point x="595.839" y="5"/>
      <point x="607" y="20" type="curve"/>
      <point x="571" y="20" type="line"/>
      <point x="571" y="90" type="line"/>
      <point x="638" y="132" type="line"/>
      <point x="571" y="132" type="line"/>
    </contour>
  </outline>
</glyph>
<glyph name="si_KVIi" format="1">
  <advance width="1108"/>
  <outline>
    <contour>
      <point x="203.041" y="-6.59313" type="curve" smooth="yes"/>
      <point x="136.875" y="-6.59313"/>
      <point x="64.9877" y="41.6331"/>
      <point x="65" y="106" type="curve" smooth="yes"/>
      <point x="65.0029" y="121.756" type="line" smooth="yes"/>
      <point x="65.0029" y="141.945"/>
      <point x="64.3154" y="161.906"/>
      <point x="41.2734" y="161.906" type="curve" smooth="yes"/>
      <point x="37.9902" y="161.906"/>
      <point x="34.2529" y="161.3"/>
      <point x="30" y="160" type="curve"/>
      <point x="147" y="255" type="line"/>
      <point x="165.91" y="239.066"/>
      <point x="180.861" y="220.713"/>
      <point x="180.88" y="202" type="curve"/>
      <point x="181" y="160" type="line" smooth="yes"/>
      <point x="181.054" y="141.248"/>
      <point x="195.791" y="131.885"/>
      <point x="210.521" y="131.885" type="curve" smooth="yes"/>
      <point x="225.264" y="131.885"/>
      <point x="240" y="141.265"/>
      <point x="240" y="160" type="curve" smooth="yes"/>
      <point x="240" y="202" type="line"/>
      <point x="339.88" y="202" type="line"/>
      <point x="340" y="162" type="line" smooth="yes"/>
      <point x="340.061" y="141.747"/>
      <point x="355.048" y="131.634"/>
      <point x="370.026" y="131.634" type="curve" smooth="yes"/>
      <point x="385.017" y="131.634"/>
      <point x="400" y="141.765"/>
      <point x="400" y="162" type="curve" smooth="yes"/>
      <point x="400.004" y="202.128" type="line" smooth="yes"/>
      <point x="400.004" y="233.327"/>
      <point x="393.873" y="258.736"/>
      <point x="351" y="276" type="curve"/>
      <point x="448.224" y="354.096" type="line"/>
      <point x="511.602" y="326.931"/>
      <point x="529" y="279.827"/>
      <point x="529" y="218" type="curve" smooth="yes"/>
      <point x="529" y="136" type="line" smooth="yes"/>
      <point x="529" y="47.0805"/>
      <point x="455.346" y="-7.17"/>
      <point x="384.539" y="-7.17" type="curve" smooth="yes"/>
      <point x="349.123" y="-7.17"/>
      <point x="314.418" y="6.40316"/>
      <point x="290" y="36" type="curve"/>
      <point x="269.556" y="6.1516"/>
      <point x="237.054" y="-6.59313"/>
    </contour>
    <contour>
      <point x="787" y="-5" type="line"/>
      <point x="659.558" y="-5"/>
      <point x="573" y="87.2324"/>
      <point x="573" y="192" type="curve" smooth="yes"/>
      <point x="573" y="235.053"/>
      <point x="581.611" y="275.32"/>
      <point x="603.666" y="306.816" type="curve" smooth="yes"/>
      <point x="625.721" y="338.312"/>
      <point x="661.221" y="361.036"/>
      <point x="715" y="369" type="curve"/>
      <point x="707.84" y="418.524"/>
      <point x="644.072" y="452.739"/>
      <point x="571.069" y="452.739" type="curve" smooth="yes"/>
      <point x="521.722" y="452.739"/>
      <point x="468.156" y="437.106"/>
      <point x="425" y="400" type="curve"/>
      <point x="155" y="181.392" type="line"/>
      <point x="30" y="160" type="line"/>
      <point x="30" y="259" type="line"/>
      <point x="335" y="509" type="line"/>
      <point x="395.88" y="558.871"/>
      <point x="475.743" y="581.892"/>
      <point x="554.539" y="581.892" type="curve" smooth="yes"/>
      <point x="700.582" y="581.892"/>
      <point x="842.958" y="502.807"/>
      <point x="854" y="369" type="curve"/>
      <point x="854" y="252" type="line"/>
      <point x="770" y="252" type="line" smooth="yes"/>
      <point x="740" y="252"/>
      <point x="711" y="242"/>
      <point x="711" y="195" type="curve" smooth="yes"/>
      <point x="711" y="165.781"/>
      <point x="733.503" y="135"/>
      <point x="787" y="135" type="curve"/>
    </contour>
    <contour>
      <point x="743" y="522" type="line" smooth="yes"/>
      <point x="624.849" y="522"/>
      <point x="565.625" y="596.374"/>
      <point x="565.625" y="670.686" type="curve" smooth="yes"/>
      <point x="565.625" y="744.874"/>
      <point x="624.651" y="819"/>
      <point x="743" y="819" type="curve" smooth="yes"/>
      <point x="790" y="819" type="line"/>
      <point x="790" y="703" type="line"/>
      <point x="732" y="703" type="line" smooth="yes"/>
      <point x="707.558" y="703"/>
      <point x="695.36" y="688.518"/>
      <point x="695.36" y="674.028" type="curve" smooth="yes"/>
      <point x="695.36" y="659.518"/>
      <point x="707.589" y="645"/>
      <point x="732" y="645" type="curve" smooth="yes"/>
      <point x="789.667" y="645" type="line"/>
      <point x="789.667" y="522" type="line"/>
    </contour>
    <contour>
      <point x="843" y="-5" type="curve"/>
      <point x="843" y="135" type="line"/>
      <point x="885.411" y="135"/>
      <point x="937" y="149"/>
      <point x="937" y="250" type="curve" smooth="yes"/>
      <point x="937" y="454" type="line" smooth="yes"/>
      <point x="937" y="514"/>
      <point x="895.736" y="522"/>
      <point x="846" y="522" type="curve"/>
      <point x="846" y="645" type="line"/>
      <point x="858.033" y="645"/>
      <point x="879.331" y="644.92"/>
      <point x="890.602" y="644.92" type="curve" smooth="yes"/>
      <point x="1023.46" y="644.931"/>
      <point x="1078" y="596.229"/>
      <point x="1078" y="474" type="curve" smooth="yes"/>
      <point x="1078" y="250" type="line" smooth="yes"/>
      <point x="1078" y="78"/>
      <point x="997.968" y="-4.83398"/>
    </contour>
    <contour>
      <point x="973" y="603" type="curve" smooth="yes"/>
      <point x="925.286" y="603"/>
      <point x="881.352" y="651.443"/>
      <point x="881.352" y="689.821" type="curve" smooth="yes"/>
      <point x="881.352" y="694.39"/>
      <point x="881.975" y="698.815"/>
      <point x="883.287" y="703" type="curve"/>
      <point x="873" y="703" type="line"/>
      <point x="846" y="703" type="line"/>
      <point x="846" y="819" type="line"/>
      <point x="973" y="819" type="line" smooth="yes"/>
      <point x="1033" y="819"/>
      <point x="1081" y="771"/>
      <point x="1081" y="711" type="curve" smooth="yes"/>
      <point x="1081" y="651"/>
      <point x="1033" y="603"/>
    </contour>
    <contour>
      <point x="147" y="402" type="curve"/>
      <point x="30" y="439" type="line"/>
      <point x="44" y="537"/>
      <point x="136.521" y="567"/>
      <point x="198" y="567" type="curve" smooth="yes"/>
      <point x="270.694" y="567"/>
      <point x="320" y="533"/>
      <point x="337" y="502" type="curve"/>
      <point x="245" y="402" type="line"/>
      <point x="245" y="437"/>
      <point x="214.169" y="446"/>
      <point x="198" y="446" type="curve" smooth="yes"/>
      <point x="164.069" y="446"/>
      <point x="147" y="422.741"/>
    </contour>
  </outline>
</glyph>
<glyph name="si_KhRI" format="1">
  <advance width="625"/>
  <outline>
    <contour>
      <point x="351" y="-234" type="curve"/>
      <point x="351" y="-103" type="line"/>
      <point x="439.739" y="-103"/>
      <point x="464.39" y="-67.9805"/>
      <point x="464.39" y="-38.7807" type="curve" smooth="yes"/>
      <point x="464.39" y="-17.9028"/>
      <point x="451.788" y="-3.55271e-15"/>
      <point x="441" y="0" type="curve"/>
      <point x="574" y="89" type="line"/>
      <point x="596.092" y="51.311"/>
      <point x="607.131" y="10.9717"/>
      <point x="607.131" y="-27.9808" type="curve" smooth="yes"/>
      <point x="607.131" y="-136.329"/>
      <point x="521.607" y="-234"/>
    </contour>
    <contour>
      <point x="296" y="-234" type="line"/>
      <point x="161.885" y="-234.053"/>
      <point x="47.833" y="-167.027"/>
      <point x="47.833" y="-37.0908" type="curve"/>
      <point x="188.833" y="-37.0908" type="line"/>
      <point x="188.833" y="-72.625"/>
      <point x="227.901" y="-103"/>
      <point x="296" y="-103" type="curve"/>
    </contour>
    <component base="si_KhI"/>
  </outline>
</glyph>
<glyph name="si_MU" format="1">
  <advance width="600"/>
  <outline>
    <contour>
      <point x="49" y="-65" type="line"/>
      <point x="261" y="-65" type="line"/>
      <point x="261" y="-205" type="line"/>
      <point x="49" y="-205" type="line"/>
    </contour>
    <contour>
      <point x="317" y="-65" type="line"/>
      <point x="432" y="-65" type="line"/>
      <point x="432" y="-205" type="line"/>
      <point x="317" y="-205" type="line"/>
    </contour>
    <contour>
      <point x="416" y="163" type="line"/>
      <point x="556" y="163" type="line"/>
      <point x="556" y="-205" type="line"/>
      <point x="416" y="-205" type="line"/>
    </contour>
    <component base="si_Ma"/>
  </outline>
</glyph>
<glyph name="si_NDhU" format="1">
  <advance width="1110"/>
  <outline>
    <contour>
      <point x="925" y="123" type="line"/>
      <point x="1065" y="123" type="line"/>
      <point x="1065" y="-205" type="line"/>
      <point x="925" y="-205" type="line"/>
    </contour>
    <contour>
      <point x="844" y="-65" type="line"/>
      <point x="935" y="-65" type="line"/>
      <point x="935" y="-205" type="line"/>
      <point x="844" y="-205" type="line"/>
    </contour>
    <contour>
      <point x="575" y="-65" type="line"/>
      <point x="788" y="-65" type="line"/>
      <point x="788" y="-205" type="line"/>
      <point x="575" y="-205" type="line"/>
    </contour>
    <component base="si_NDha"/>
  </outline>
</glyph>
<glyph name="si_NVa" format="1">
  <advance width="1082"/>
  <outline>
    <contour>
      <point x="761" y="-5" type="line"/>
      <point x="633.558" y="-5"/>
      <point x="547" y="84.2324"/>
      <point x="547" y="189" type="curve" smooth="yes"/>
      <point x="547" y="227.242"/>
      <point x="552.36" y="267.242"/>
      <point x="572.415" y="300.182" type="curve" smooth="yes"/>
      <point x="592.47" y="333.121"/>
      <point x="627.22" y="359"/>
      <point x="686" y="369" type="curve"/>
      <point x="651.699" y="447.451"/>
      <point x="576.575" y="452.589"/>
      <point x="519.43" y="452.589" type="curve" smooth="yes"/>
      <point x="454.63" y="452.589"/>
      <point x="402.375" y="422.837"/>
      <point x="373" y="384" type="curve" smooth="yes"/>
      <point x="295.093" y="281" type="line"/>
      <point x="239.657" y="208"/>
      <point x="201.849" y="165"/>
      <point x="154" y="165" type="curve"/>
      <point x="125" y="165" type="line"/>
      <point x="125" y="304" type="line" smooth="yes"/>
      <point x="149.771" y="303.963" type="line" smooth="yes"/>
      <point x="163.046" y="303.963"/>
      <point x="188.404" y="336.961"/>
      <point x="214.476" y="375.339" type="curve" smooth="yes"/>
      <point x="240.547" y="413.717"/>
      <point x="267.331" y="457.476"/>
      <point x="283.456" y="479" type="curve"/>
      <point x="330.506" y="549.864"/>
      <point x="427.126" y="585.676"/>
      <point x="526.1" y="585.676" type="curve" smooth="yes"/>
      <point x="675.278" y="585.676"/>
      <point x="829.803" y="504.318"/>
      <point x="828" y="339" type="curve"/>
      <point x="828" y="252" type="line"/>
      <point x="744" y="252" type="line" smooth="yes"/>
      <point x="714" y="252"/>
      <point x="685" y="242"/>
      <point x="685" y="195" type="curve" smooth="yes"/>
      <point x="685" y="165.781"/>
      <point x="707.503" y="135"/>
      <point x="761" y="135" type="curve"/>
    </contour>
    <contour>
      <point x="30" y="256" type="curve"/>
      <point x="30" y="344" type="line"/>
      <point x="148" y="344" type="line"/>
      <point x="148" y="313"/>
      <point x="148" y="301"/>
      <point x="148" y="270" type="curve" smooth="yes"/>
      <point x="148" y="150.343"/>
      <point x="208.982" y="127"/>
      <point x="278" y="127" type="curve" smooth="yes"/>
      <point x="331.142" y="127"/>
      <point x="362.45" y="166.525"/>
      <point x="362.45" y="202.924" type="curve" smooth="yes"/>
      <point x="362.45" y="221.755"/>
      <point x="354.07" y="239.749"/>
      <point x="336" y="251" type="curve"/>
      <point x="412.215" y="354.312" type="line"/>
      <point x="472.659" y="322.193"/>
      <point x="502.238" y="261.013"/>
      <point x="502.238" y="197.943" type="curve" smooth="yes"/>
      <point x="502.238" y="97.3508"/>
      <point x="427.008" y="-8.00007"/>
      <point x="281.777" y="-8.00007" type="curve" smooth="yes"/>
      <point x="133.896" y="-8.00007"/>
      <point x="30" y="85.1581"/>
    </contour>
    <contour>
      <point x="817" y="-5" type="curve"/>
      <point x="817" y="135" type="line"/>
      <point x="859.411" y="135"/>
      <point x="912" y="149.137"/>
      <point x="912" y="250" type="curve" smooth="yes"/>
      <point x="912" y="498" type="line" smooth="yes"/>
      <point x="912" y="577"/>
      <point x="895.252" y="616"/>
      <point x="817" y="616" type="curve"/>
      <point x="817" y="755" type="line"/>
      <point x="951.272" y="755"/>
      <point x="1052" y="699.969"/>
      <point x="1052" y="520" type="curve" smooth="yes"/>
      <point x="1052" y="250" type="line" smooth="yes"/>
      <point x="1052" y="78.4932"/>
      <point x="971.968" y="-4.83398"/>
    </contour>
    <contour>
      <point x="32" y="439" type="line"/>
      <point x="46" y="537"/>
      <point x="138.521" y="567"/>
      <point x="200" y="567" type="curve" smooth="yes"/>
      <point x="268.511" y="567"/>
      <point x="331" y="522"/>
      <point x="331" y="506" type="curve"/>
      <point x="247" y="402" type="line"/>
      <point x="247" y="437"/>
      <point x="216.169" y="446"/>
      <point x="200" y="446" type="curve" smooth="yes"/>
      <point x="166.069" y="446"/>
      <point x="149" y="422.741"/>
      <point x="149" y="402" type="curve"/>
    </contour>
    <contour>
      <point x="568.839" y="650.188" type="line"/>
      <point x="607.225" y="712.855"/>
      <point x="685.024" y="755"/>
      <point x="761" y="755" type="curve"/>
      <point x="761" y="616.5" type="line"/>
      <point x="743.841" y="616.5"/>
      <point x="726.888" y="612.756"/>
      <point x="713.062" y="603.412" type="curve"/>
    </contour>
  </outline>
</glyph>
<glyph name="si_NyRa" format="1">
  <advance width="1168"/>
  <outline>
    <contour>
      <point x="209" y="160" type="curve"/>
      <point x="326" y="255" type="line"/>
      <point x="344.91" y="239.066"/>
      <point x="359.861" y="220.713"/>
      <point x="359.88" y="202" type="curve"/>
      <point x="360" y="160" type="line" smooth="yes"/>
      <point x="360.054" y="141.248"/>
      <point x="374.791" y="131.885"/>
      <point x="389.521" y="131.885" type="curve" smooth="yes"/>
      <point x="404.264" y="131.885"/>
      <point x="419" y="141.265"/>
      <point x="419" y="160" type="curve" smooth="yes"/>
      <point x="419" y="202" type="line"/>
      <point x="518.88" y="202" type="line"/>
      <point x="519" y="162" type="line" smooth="yes"/>
      <point x="519.061" y="141.747"/>
      <point x="534.048" y="131.634"/>
      <point x="549.026" y="131.634" type="curve" smooth="yes"/>
      <point x="564.017" y="131.634"/>
      <point x="579" y="141.765"/>
      <point x="579" y="162" type="curve" smooth="yes"/>
      <point x="579.004" y="202.128" type="line" smooth="yes"/>
      <point x="579.004" y="233.327"/>
      <point x="572.873" y="258.736"/>
      <point x="530" y="276" type="curve"/>
      <point x="627.224" y="354.096" type="line"/>
      <point x="690.602" y="326.931"/>
      <point x="708" y="279.827"/>
      <point x="708" y="218" type="curve" smooth="yes"/>
      <point x="708" y="136" type="line" smooth="yes"/>
      <point x="708" y="47.0801"/>
      <point x="634.346" y="-7.16992"/>
      <point x="563.539" y="-7.16992" type="curve" smooth="yes"/>
      <point x="528.123" y="-7.16992"/>
      <point x="493.418" y="6.40332"/>
      <point x="469" y="36" type="curve"/>
      <point x="448.556" y="6.15137"/>
      <point x="416.054" y="-6.59277"/>
      <point x="382.041" y="-6.59277" type="curve" smooth="yes"/>
      <point x="315.875" y="-6.59277"/>
      <point x="243.988" y="41.6328"/>
      <point x="244" y="106" type="curve" smooth="yes"/>
      <point x="244.003" y="121.756" type="line" smooth="yes"/>
      <point x="244.003" y="141.945"/>
      <point x="243.315" y="161.906"/>
      <point x="220.273" y="161.906" type="curve" smooth="yes"/>
      <point x="216.99" y="161.906"/>
      <point x="213.253" y="161.3"/>
    </contour>
    <contour>
      <point x="796" y="592.392" type="line"/>
      <point x="895.939" y="592.392"/>
      <point x="1061" y="572.119"/>
      <point x="1061" y="398" type="curve" smooth="yes"/>
      <point x="1061" y="262" type="line"/>
      <point x="875" y="262" type="line" smooth="yes"/>
      <point x="836" y="262"/>
      <point x="792" y="256.19"/>
      <point x="792" y="197" type="curve" smooth="yes"/>
      <point x="792" y="145"/>
      <point x="839" y="135"/>
      <point x="876" y="135" type="curve" smooth="yes"/>
      <point x="893" y="135" type="line" smooth="yes"/>
      <point x="925.728" y="135"/>
      <point x="955" y="139"/>
      <point x="968" y="171" type="curve"/>
      <point x="1104" y="171" type="line"/>
      <point x="1076" y="61"/>
      <point x="995.826" y="-1"/>
      <point x="903" y="-1" type="curve" smooth="yes"/>
      <point x="876" y="-1" type="line" smooth="yes"/>
      <point x="756" y="-1"/>
      <point x="649" y="58.3916"/>
      <point x="649" y="197" type="curve" smooth="yes"/>
      <point x="649" y="333.29"/>
      <point x="740" y="397"/>
      <point x="874" y="397" type="curve" smooth="yes"/>
      <point x="918" y="397" type="line"/>
      <point x="918" y="461.006"/>
      <point x="830.462" y="462.396"/>
      <point x="796" y="462.396" type="curve"/>
    </contour>
    <contour>
      <point x="111.039" y="-41" type="line"/>
      <point x="51.3975" y="36.1836"/>
      <point x="30" y="106.444"/>
      <point x="30" y="197" type="curve" smooth="yes"/>
      <point x="30" y="287" type="line" smooth="yes"/>
      <point x="30" y="466.643"/>
      <point x="137.514" y="554.131"/>
      <point x="242.876" y="554.131" type="curve" smooth="yes"/>
      <point x="263.612" y="554.131"/>
      <point x="285.348" y="553.326"/>
      <point x="326" y="533" type="curve"/>
      <point x="326" y="402" type="line"/>
      <point x="279.137" y="416.319"/>
      <point x="265.184" y="419.803"/>
      <point x="250.483" y="419.803" type="curve" smooth="yes"/>
      <point x="210.753" y="419.803"/>
      <point x="166" y="395.757"/>
      <point x="166" y="287" type="curve" smooth="yes"/>
      <point x="166" y="197" type="line" smooth="yes"/>
      <point x="166" y="116.436"/>
      <point x="176.558" y="75.5967"/>
      <point x="241" y="-1" type="curve"/>
    </contour>
    <contour>
      <point x="209" y="160" type="line"/>
      <point x="209" y="259" type="line"/>
      <point x="510" y="504" type="line"/>
      <point x="577.472" y="559.472"/>
      <point x="634.032" y="593.11"/>
      <point x="741" y="593.118" type="curve"/>
      <point x="741" y="462.197" type="line"/>
      <point x="679.073" y="462.351"/>
      <point x="640.832" y="429.886"/>
      <point x="604" y="400" type="curve"/>
      <point x="334" y="181.392" type="line"/>
    </contour>
    <contour>
      <point x="209" y="439" type="line"/>
      <point x="223" y="537"/>
      <point x="315.521" y="567"/>
      <point x="377" y="567" type="curve" smooth="yes"/>
      <point x="449.694" y="567"/>
      <point x="499" y="533"/>
      <point x="516" y="502" type="curve"/>
      <point x="424" y="402" type="line"/>
      <point x="424" y="437"/>
      <point x="393.169" y="446"/>
      <point x="377" y="446" type="curve" smooth="yes"/>
      <point x="343.069" y="446"/>
      <point x="326" y="422.741"/>
      <point x="326" y="402" type="curve"/>
    </contour>
    <contour>
      <point x="905" y="-102" type="line"/>
      <point x="949.222" y="-102"/>
      <point x="966" y="-68.0566"/>
      <point x="966" y="-20" type="curve" smooth="yes"/>
      <point x="966" y="54" type="line"/>
      <point x="1104" y="171" type="line"/>
      <point x="1104" y="1" type="line" smooth="yes"/>
      <point x="1104" y="-140.824"/>
      <point x="1050.29" y="-235"/>
      <point x="905" y="-235" type="curve"/>
    </contour>
    <contour>
      <point x="849.333" y="-235.038" type="line"/>
      <point x="746.333" y="-235.091"/>
      <point x="647.333" y="-171.326"/>
      <point x="647.333" y="-76.0908" type="curve" smooth="yes"/>
      <point x="647.333" y="-48.0908" type="line"/>
      <point x="777.333" y="-48.0908" type="line"/>
      <point x="777.333" y="-79.3965"/>
      <point x="808.333" y="-102.091"/>
      <point x="849.333" y="-102" type="curve"/>
    </contour>
  </outline>
</glyph>
<glyph name="si_Rakar" format="1">
  <advance width="0"/>
  <outline>
    <contour>
      <point x="-264.5" y="-233.947" type="curve"/>
      <point x="-264.5" y="-102.81" type="line"/>
      <point x="-211.5" y="-103"/>
      <point x="-170.5" y="-79.9609"/>
      <point x="-170.5" y="-47" type="curve"/>
      <point x="-170.5" y="-9.45703"/>
      <point x="-201.5" y="-5"/>
      <point x="-264.5" y="-5" type="curve" smooth="yes"/>
      <point x="-264.5" y="115" type="line"/>
      <point x="-103.515" y="115"/>
      <point x="-35.4971" y="46.7178"/>
      <point x="-35.4971" y="-48.6387" type="curve" smooth="yes"/>
      <point x="-35.4971" y="-165.896"/>
      <point x="-133.5" y="-234"/>
    </contour>
    <contour>
      <point x="-320.667" y="-234.038" type="line"/>
      <point x="-423.667" y="-234.091"/>
      <point x="-522.667" y="-170.326"/>
      <point x="-522.667" y="-75.0908" type="curve" smooth="yes"/>
      <point x="-522.667" y="-47.0908" type="line"/>
      <point x="-392.667" y="-47.0908" type="line"/>
      <point x="-392.667" y="-78.3965"/>
      <point x="-361.667" y="-101.091"/>
      <point x="-320.667" y="-101" type="curve"/>
    </contour>
  </outline>
</glyph>
<glyph name="si_SsUu" format="1">
  <advance width="660"/>
  <outline>
    <contour>
      <point x="52" y="-34" type="line"/>
      <point x="92.4791" y="-59.333"/>
      <point x="128.005" y="-67.7773"/>
      <point x="160.741" y="-67.7773" type="curve" smooth="yes"/>
      <point x="212.051" y="-67.7773"/>
      <point x="254.616" y="-34"/>
      <point x="302" y="-34" type="curve"/>
      <point x="302" y="-174" type="line"/>
      <point x="254.616" y="-174"/>
      <point x="212.051" y="-204.777"/>
      <point x="160.741" y="-204.777" type="curve" smooth="yes"/>
      <point x="128.005" y="-204.777"/>
      <point x="92.4791" y="-197.083"/>
      <point x="52" y="-174" type="curve"/>
    </contour>
    <contour>
      <point x="360" y="-34" type="line"/>
      <point x="389.143" y="-34"/>
      <point x="440.826" y="-39.9221"/>
      <point x="480" y="-61" type="curve"/>
      <point x="480" y="-205" type="line"/>
      <point x="435.611" y="-180.252"/>
      <point x="396" y="-174"/>
      <point x="360" y="-174" type="curve"/>
    </contour>
    <contour>
      <point x="480" y="131" type="line"/>
      <point x="620" y="131" type="line"/>
      <point x="620" y="-205" type="line"/>
      <point x="480" y="-205" type="line"/>
    </contour>
    <component base="si_Ssa"/>
  </outline>
</glyph>
<glyph name="si_TtTthUu" format="1">
  <advance width="786"/>
  <outline>
    <contour>
      <point x="30" y="200" type="curve" smooth="yes"/>
      <point x="30" y="240" type="line" smooth="yes"/>
      <point x="30" y="335"/>
      <point x="60.9932" y="474.245"/>
      <point x="265.051" y="474.245" type="curve" smooth="yes"/>
      <point x="441" y="474" type="line"/>
      <point x="441" y="336" type="line"/>
      <point x="224" y="336" type="line" smooth="yes"/>
      <point x="174.46" y="336"/>
      <point x="166" y="283"/>
      <point x="166" y="244" type="curve" smooth="yes"/>
      <point x="166" y="170" type="line" smooth="yes"/>
      <point x="166" y="114.504"/>
      <point x="170.649" y="74.2246"/>
      <point x="223" y="12" type="curve"/>
      <point x="93.0391" y="-28" type="line"/>
      <point x="33.3975" y="49.1836"/>
      <point x="30" y="109.444"/>
    </contour>
    <component base="si_TthUu" xOffset="193"/>
  </outline>
</glyph>
<glyph name="si_YU.post" format="1">
  <advance width="518"/>
  <outline>
    <contour>
      <point x="329" y="123" type="line"/>
      <point x="469" y="123" type="line"/>
      <point x="469" y="-205" type="line"/>
      <point x="329" y="-205" type="line"/>
    </contour>
    <contour>
      <point x="30" y="-65" type="line"/>
      <point x="274" y="-65" type="line"/>
      <point x="274" y="-205" type="line"/>
      <point x="30" y="-205" type="line"/>
    </contour>
    <component base="si_Ya.post"/>
  </outline>
</glyph>
<glyph name="si_Ya.post.MatraI" format="1">
  <advance width="498"/>
  <outline>
    <contour>
      <point x="38" y="602" type="line"/>
      <point x="38" y="630" type="line"/>
      <point x="38" y="723"/>
      <point x="115" y="789"/>
      <point x="214" y="789" type="curve"/>
      <point x="302" y="789" type="line"/>
      <point x="401" y="789"/>
      <point x="478" y="723"/>
      <point x="478" y="630" type="curve"/>
      <point x="478" y="602" type="line"/>
      <point x="348" y="602" type="line"/>
      <point x="348" y="654"/>
      <point x="313" y="658"/>
      <point x="286" y="659" type="curve"/>
      <point x="230" y="659" type="line"/>
      <point x="203" y="658"/>
      <point x="168" y="654"/>
      <point x="168" y="602" type="curve"/>
    </contour>
    <component base="si_Ya.post"/>
  </outline>
</glyph>
<glyph name="tml_HU" format="1">
  <advance width="1766"/>
  <outline>
    <contour>
      <point x="1177" y="482" type="line"/>
      <point x="1521" y="482" type="line" smooth="yes"/>
      <point x="1577" y="481"/>
      <point x="1610" y="471"/>
      <point x="1610" y="433" type="curve" smooth="yes"/>
      <point x="1610" y="415"/>
      <point x="1599" y="401"/>
      <point x="1576" y="401" type="curve" smooth="yes"/>
      <point x="1554" y="401"/>
      <point x="1542" y="414"/>
      <point x="1542" y="434" type="curve" smooth="yes"/>
      <point x="1420" y="434" type="line"/>
      <point x="1420" y="349"/>
      <point x="1491" y="279"/>
      <point x="1560" y="279" type="curve" smooth="yes"/>
      <point x="1589" y="279" type="line" smooth="yes"/>
      <point x="1644" y="279"/>
      <point x="1732" y="330"/>
      <point x="1732" y="434" type="curve" smooth="yes"/>
      <point x="1732" y="444" type="line" smooth="yes"/>
      <point x="1732" y="577"/>
      <point x="1639" y="605"/>
      <point x="1528" y="606" type="curve" smooth="yes"/>
      <point x="1177" y="606" type="line"/>
    </contour>
    <component base="tml_Ha"/>
  </outline>
</glyph>
<glyph name="tml_JUu" format="1">
  <advance width="1467"/>
  <outline>
    <contour>
      <point x="1189" y="210" type="line" smooth="yes"/>
      <point x="1248" y="210" type="line" smooth="yes"/>
      <point x="1353" y="210"/>
      <point x="1427" y="255"/>
      <point x="1427" y="360" type="curve" smooth="yes"/>
      <point x="1427" y="684" type="line" smooth="yes"/>
      <point x="1427" y="789"/>
      <point x="1340" y="881"/>
      <point x="1194" y="881" type="curve" smooth="yes"/>
      <point x="1062" y="881"/>
      <point x="965" y="790"/>
      <point x="965" y="680" type="curve" smooth="yes"/>
      <point x="1087" y="680" type="line"/>
      <point x="1087" y="746"/>
      <point x="1156" y="759"/>
      <point x="1194" y="759" type="curve" smooth="yes"/>
      <point x="1233" y="759"/>
      <point x="1304" y="744"/>
      <point x="1304" y="684" type="curve" smooth="yes"/>
      <point x="1304" y="360" type="line" smooth="yes"/>
      <point x="1304" y="325"/>
      <point x="1286" y="302"/>
      <point x="1248" y="302" type="curve" smooth="yes"/>
      <point x="1189" y="302" type="line" smooth="yes"/>
    </contour>
    <contour>
      <point x="1105" y="363" type="curve" smooth="yes"/>
      <point x="1134" y="363" type="line" smooth="yes"/>
      <point x="1189" y="363"/>
      <point x="1277" y="414"/>
      <point x="1277" y="518" type="curve" smooth="yes"/>
      <point x="1277" y="528" type="line" smooth="yes"/>
      <point x="1277" y="661"/>
      <point x="1181" y="684"/>
      <point x="1070" y="684" type="curve" smooth="yes"/>
      <point x="718" y="684" type="line"/>
      <point x="718" y="562" type="line"/>
      <point x="1066" y="562" type="line" smooth="yes"/>
      <point x="1122" y="562"/>
      <point x="1155" y="555"/>
      <point x="1155" y="517" type="curve" smooth="yes"/>
      <point x="1155" y="499"/>
      <point x="1144" y="485"/>
      <point x="1121" y="485" type="curve" smooth="yes"/>
      <point x="1099" y="485"/>
      <point x="1087" y="498"/>
      <point x="1087" y="518" type="curve" smooth="yes"/>
      <point x="965" y="518" type="line"/>
      <point x="965" y="433"/>
      <point x="1036" y="363"/>
    </contour>
    <component base="tml_Ja"/>
  </outline>
</glyph>
<glyph name="tml_KI.alt" format="1">
  <advance width="1014"/>
  <outline>
    <contour>
      <point x="87" y="272" type="curve"/>
      <point x="186" y="365" type="line"/>
      <point x="87" y="652"/>
      <point x="297" y="721"/>
      <point x="465" y="733" type="curve" smooth="yes"/>
      <point x="465" y="855" type="line"/>
      <point x="186" y="857"/>
      <point x="-67" y="650"/>
    </contour>
    <contour>
      <point x="519" y="733" type="line"/>
      <point x="621" y="733"/>
      <point x="853" y="697"/>
      <point x="853" y="426" type="curve" smooth="yes"/>
      <point x="853" y="1" type="line"/>
      <point x="975" y="1" type="line"/>
      <point x="975" y="429" type="line" smooth="yes"/>
      <point x="974" y="751"/>
      <point x="719" y="855"/>
      <point x="519" y="855" type="curve"/>
    </contour>
    <component base="tml_Ka" xOffset="12.702"/>
  </outline>
</glyph>
<glyph name="tml_NnAa.alt" format="1">
  <advance width="1616"/>
  <outline>
    <contour>
      <point x="40" y="6" type="line" smooth="yes"/>
      <point x="40" y="-133"/>
      <point x="125" y="-200"/>
      <point x="234" y="-200" type="curve" smooth="yes"/>
      <point x="797" y="-200" type="line"/>
      <point x="797" y="-78" type="line"/>
      <point x="250" y="-78" type="line" smooth="yes"/>
      <point x="186" y="-78"/>
      <point x="163" y="-58"/>
      <point x="163" y="6" type="curve" smooth="yes"/>
      <point x="163" y="513" type="line" smooth="yes"/>
      <point x="163" y="549"/>
      <point x="166" y="603"/>
      <point x="240" y="603" type="curve"/>
      <point x="292" y="603" type="line"/>
      <point x="328" y="726" type="line"/>
      <point x="239" y="726" type="line"/>
      <point x="154" y="726"/>
      <point x="40" y="676"/>
      <point x="40" y="513" type="curve" smooth="yes"/>
    </contour>
    <contour>
      <point x="852" y="-78" type="line"/>
      <point x="852" y="-200" type="line"/>
      <point x="1389" y="-200" type="line" smooth="yes"/>
      <point x="1515" y="-200"/>
      <point x="1576" y="-105"/>
      <point x="1576" y="-38" type="curve" smooth="yes"/>
      <point x="1576" y="141" type="line" smooth="yes"/>
      <point x="1576" y="249"/>
      <point x="1474" y="286"/>
      <point x="1412" y="292" type="curve"/>
      <point x="1412" y="165" type="line"/>
      <point x="1434" y="165"/>
      <point x="1454" y="157"/>
      <point x="1454" y="107" type="curve" smooth="yes"/>
      <point x="1454" y="6" type="line" smooth="yes"/>
      <point x="1454" y="-37"/>
      <point x="1457" y="-78"/>
      <point x="1388" y="-78" type="curve" smooth="yes"/>
    </contour>
    <contour>
      <point x="218" y="166" type="line"/>
      <point x="218" y="81"/>
      <point x="268" y="-1"/>
      <point x="363" y="-1" type="curve" smooth="yes"/>
      <point x="363" y="121" type="line"/>
      <point x="338" y="121"/>
      <point x="340" y="155"/>
      <point x="340" y="167" type="curve" smooth="yes"/>
      <point x="340" y="289" type="line" smooth="yes"/>
      <point x="340" y="475"/>
      <point x="433" y="472"/>
      <point x="513" y="472" type="curve"/>
      <point x="513" y="595" type="line"/>
      <point x="444" y="595"/>
      <point x="218" y="595"/>
      <point x="218" y="289" type="curve" smooth="yes"/>
    </contour>
    <contour>
      <point x="388" y="341" type="curve"/>
      <point x="409" y="341"/>
      <point x="441" y="341"/>
      <point x="441" y="289" type="curve" smooth="yes"/>
      <point x="441" y="166" type="line" smooth="yes"/>
      <point x="441" y="155"/>
      <point x="445" y="121"/>
      <point x="417" y="121" type="curve" smooth="yes"/>
      <point x="417" y="-1" type="line"/>
      <point x="514" y="-1"/>
      <point x="563" y="74"/>
      <point x="563" y="166" type="curve" smooth="yes"/>
      <point x="563" y="289" type="line" smooth="yes"/>
      <point x="563" y="377"/>
      <point x="540" y="436"/>
      <point x="473" y="436" type="curve"/>
      <point x="416" y="431"/>
      <point x="385" y="375"/>
    </contour>
    <contour>
      <point x="601" y="167" type="line"/>
      <point x="601" y="82"/>
      <point x="651" y="0"/>
      <point x="746" y="0" type="curve" smooth="yes"/>
      <point x="746" y="122" type="line"/>
      <point x="721" y="122"/>
      <point x="723" y="156"/>
      <point x="723" y="168" type="curve" smooth="yes"/>
      <point x="723" y="289" type="line" smooth="yes"/>
      <point x="723" y="475"/>
      <point x="845" y="472"/>
      <point x="934" y="472" type="curve"/>
      <point x="934" y="595" type="line"/>
      <point x="869" y="595"/>
      <point x="601" y="590"/>
      <point x="601" y="287" type="curve" smooth="yes"/>
    </contour>
    <contour>
      <point x="567" y="472" type="line"/>
      <point x="700" y="471"/>
      <point x="824" y="475"/>
      <point x="824" y="289" type="curve" smooth="yes"/>
      <point x="824" y="167" type="line" smooth="yes"/>
      <point x="824" y="156"/>
      <point x="827" y="122"/>
      <point x="799" y="122" type="curve" smooth="yes"/>
      <point x="799" y="0" type="line"/>
      <point x="896" y="0"/>
      <point x="946" y="75"/>
      <point x="946" y="167" type="curve" smooth="yes"/>
      <point x="946" y="300" type="line" smooth="yes"/>
      <point x="946" y="585"/>
      <point x="709" y="595"/>
      <point x="567" y="595" type="curve"/>
    </contour>
    <contour>
      <point x="986" y="168" type="line"/>
      <point x="986" y="83"/>
      <point x="1036" y="1"/>
      <point x="1131" y="1" type="curve" smooth="yes"/>
      <point x="1131" y="123" type="line"/>
      <point x="1106" y="123"/>
      <point x="1108" y="157"/>
      <point x="1108" y="169" type="curve" smooth="yes"/>
      <point x="1108" y="290" type="line" smooth="yes"/>
      <point x="1108" y="476"/>
      <point x="1230" y="473"/>
      <point x="1318" y="473" type="curve"/>
      <point x="1318" y="595" type="line"/>
      <point x="1254" y="595"/>
      <point x="986" y="591"/>
      <point x="986" y="288" type="curve" smooth="yes"/>
    </contour>
    <contour>
      <point x="988" y="473" type="line"/>
      <point x="1111" y="473"/>
      <point x="1208" y="476"/>
      <point x="1208" y="290" type="curve" smooth="yes"/>
      <point x="1208" y="168" type="line" smooth="yes"/>
      <point x="1208" y="157"/>
      <point x="1213" y="123"/>
      <point x="1185" y="123" type="curve" smooth="yes"/>
      <point x="1185" y="1" type="line"/>
      <point x="1282" y="1"/>
      <point x="1331" y="76"/>
      <point x="1331" y="168" type="curve" smooth="yes"/>
      <point x="1331" y="301" type="line" smooth="yes"/>
      <point x="1331" y="586"/>
      <point x="1120" y="595"/>
      <point x="988" y="595" type="curve"/>
    </contour>
    <contour>
      <point x="1412" y="169" type="line"/>
      <point x="1516" y="169"/>
      <point x="1566" y="244"/>
      <point x="1566" y="336" type="curve" smooth="yes"/>
      <point x="1566" y="413" type="line" smooth="yes"/>
      <point x="1566" y="555"/>
      <point x="1469" y="584"/>
      <point x="1373" y="590" type="curve"/>
      <point x="1373" y="468" type="line"/>
      <point x="1434" y="464"/>
      <point x="1443" y="432"/>
      <point x="1443" y="413" type="curve" smooth="yes"/>
      <point x="1443" y="336" type="line" smooth="yes"/>
      <point x="1443" y="325"/>
      <point x="1448" y="291"/>
      <point x="1412" y="291" type="curve" smooth="yes"/>
    </contour>
  </outline>
</glyph>
<glyph name="tml_NnIi" format="1">
  <advance width="1678"/>
  <outline>
    <contour>
      <point x="1251" y="477" type="line"/>
      <point x="1375" y="477" type="line"/>
      <point x="1375" y="595" type="line" smooth="yes"/>
      <point x="1300" y="753"/>
      <point x="1370" y="828"/>
      <point x="1441" y="828" type="curve"/>
      <point x="1498" y="828"/>
      <point x="1509" y="794"/>
      <point x="1509" y="779" type="curve" smooth="yes"/>
      <point x="1509" y="758"/>
      <point x="1498" y="739"/>
      <point x="1475" y="739" type="curve" smooth="yes"/>
      <point x="1450" y="739"/>
      <point x="1441" y="756"/>
      <point x="1441" y="772" type="curve" smooth="yes"/>
      <point x="1370" y="689" type="line"/>
      <point x="1380" y="668"/>
      <point x="1427" y="630"/>
      <point x="1472" y="630" type="curve" smooth="yes"/>
      <point x="1671" y="630"/>
      <point x="1679" y="943"/>
      <point x="1451" y="943" type="curve" smooth="yes"/>
      <point x="1248" y="943"/>
      <point x="1177" y="755"/>
      <point x="1251" y="596" type="curve" smooth="yes"/>
    </contour>
    <contour>
      <point x="1188" y="473" type="curve"/>
      <point x="1471" y="473" type="line"/>
      <point x="1471" y="595" type="line"/>
      <point x="1188" y="595" type="line"/>
      <point x="1124" y="595"/>
      <point x="856" y="591"/>
      <point x="856" y="288" type="curve" smooth="yes"/>
      <point x="856" y="168" type="line"/>
      <point x="856" y="83"/>
      <point x="906" y="1"/>
      <point x="1001" y="1" type="curve" smooth="yes"/>
      <point x="1001" y="123" type="line"/>
      <point x="976" y="123"/>
      <point x="978" y="157"/>
      <point x="978" y="169" type="curve" smooth="yes"/>
      <point x="978" y="290" type="line" smooth="yes"/>
      <point x="978" y="476"/>
      <point x="1100" y="473"/>
    </contour>
    <contour>
      <point x="88" y="166" type="line"/>
      <point x="88" y="81"/>
      <point x="138" y="-1"/>
      <point x="233" y="-1" type="curve" smooth="yes"/>
      <point x="233" y="121" type="line"/>
      <point x="208" y="121"/>
      <point x="210" y="155"/>
      <point x="210" y="167" type="curve" smooth="yes"/>
      <point x="210" y="289" type="line" smooth="yes"/>
      <point x="210" y="475"/>
      <point x="303" y="472"/>
      <point x="383" y="472" type="curve"/>
      <point x="383" y="595" type="line"/>
      <point x="314" y="595"/>
      <point x="88" y="595"/>
      <point x="88" y="289" type="curve" smooth="yes"/>
    </contour>
    <contour>
      <point x="258" y="341" type="curve"/>
      <point x="279" y="341"/>
      <point x="311" y="341"/>
      <point x="311" y="289" type="curve" smooth="yes"/>
      <point x="311" y="166" type="line" smooth="yes"/>
      <point x="311" y="155"/>
      <point x="315" y="121"/>
      <point x="287" y="121" type="curve" smooth="yes"/>
      <point x="287" y="-1" type="line"/>
      <point x="384" y="-1"/>
      <point x="433" y="74"/>
      <point x="433" y="166" type="curve" smooth="yes"/>
      <point x="433" y="289" type="line" smooth="yes"/>
      <point x="433" y="377"/>
      <point x="410" y="436"/>
      <point x="343" y="436" type="curve"/>
      <point x="286" y="431"/>
      <point x="255" y="375"/>
    </contour>
    <contour>
      <point x="471" y="167" type="line"/>
      <point x="471" y="82"/>
      <point x="521" y="0"/>
      <point x="616" y="0" type="curve" smooth="yes"/>
      <point x="616" y="122" type="line"/>
      <point x="591" y="122"/>
      <point x="593" y="156"/>
      <point x="593" y="168" type="curve" smooth="yes"/>
      <point x="593" y="289" type="line" smooth="yes"/>
      <point x="593" y="475"/>
      <point x="715" y="472"/>
      <point x="804" y="472" type="curve"/>
      <point x="804" y="595" type="line"/>
      <point x="739" y="595"/>
      <point x="471" y="590"/>
      <point x="471" y="287" type="curve" smooth="yes"/>
    </contour>
    <contour>
      <point x="437" y="472" type="line"/>
      <point x="570" y="471"/>
      <point x="694" y="475"/>
      <point x="694" y="289" type="curve" smooth="yes"/>
      <point x="694" y="167" type="line" smooth="yes"/>
      <point x="694" y="156"/>
      <point x="697" y="122"/>
      <point x="669" y="122" type="curve" smooth="yes"/>
      <point x="669" y="0" type="line"/>
      <point x="766" y="0"/>
      <point x="816" y="75"/>
      <point x="816" y="167" type="curve" smooth="yes"/>
      <point x="816" y="300" type="line" smooth="yes"/>
      <point x="816" y="585"/>
      <point x="579" y="595"/>
      <point x="437" y="595" type="curve"/>
    </contour>
    <contour>
      <point x="858" y="473" type="line"/>
      <point x="981" y="473"/>
      <point x="1078" y="476"/>
      <point x="1078" y="290" type="curve" smooth="yes"/>
      <point x="1078" y="168" type="line" smooth="yes"/>
      <point x="1078" y="157"/>
      <point x="1083" y="123"/>
      <point x="1055" y="123" type="curve" smooth="yes"/>
      <point x="1055" y="1" type="line"/>
      <point x="1152" y="1"/>
      <point x="1201" y="76"/>
      <point x="1201" y="168" type="curve" smooth="yes"/>
      <point x="1201" y="301" type="line" smooth="yes"/>
      <point x="1201" y="586"/>
      <point x="990" y="595"/>
      <point x="858" y="595" type="curve"/>
    </contour>
    <contour>
      <point x="1252" y="1" type="line"/>
      <point x="1374" y="1" type="line"/>
      <point x="1374" y="563" type="line"/>
      <point x="1252" y="563" type="line"/>
    </contour>
  </outline>
</glyph>
